<svg xmlns="http://www.w3.org/2000/svg" xmlns:xlink="http://www.w3.org/1999/xlink" height="128" width="128"><defs><linearGradient id="c"><stop offset="0" stop-color="#fff"/><stop offset=".727" stop-color="#fff"/><stop offset="1" stop-color="#f6f5f4"/></linearGradient><linearGradient xlink:href="#a" id="g" gradientUnits="userSpaceOnUse" x1="52.954" y1="229.984" x2="39.951" y2="223.426" gradientTransform="matrix(-1 0 0 1 1180 257)"/><linearGradient id="a"><stop offset="0" stop-color="#4b4752"/><stop offset="1" stop-color="#4b4752" stop-opacity="0"/></linearGradient><linearGradient xlink:href="#b" id="i" gradientUnits="userSpaceOnUse" gradientTransform="matrix(.8 0 0 1 18.5 0)" x1="88.781" y1="232.5" x2="94.5" y2="232.5"/><linearGradient id="b"><stop offset="0" stop-color="#3d3846"/><stop offset="1" stop-color="#3d3846" stop-opacity="0"/></linearGradient><radialGradient xlink:href="#c" id="d" gradientUnits="userSpaceOnUse" gradientTransform="translate(30.459 21.198) scale(.9088)" cx="334" cy="231.209" fx="334" fy="231.209" r="7"/><radialGradient xlink:href="#c" id="e" gradientUnits="userSpaceOnUse" gradientTransform="translate(30.459 21.198) scale(.9088)" cx="334" cy="231.209" fx="334" fy="231.209" r="7"/><clipPath clipPathUnits="userSpaceOnUse" id="f"/></defs><rect width="136.193" height="137.808" x="-3.358" y="-3.097" rx="0" ry="0" fill="#99c1f1"/><path d="M128.17 142.449V119.27c0-8.41-7.438-12.85-15.18-15.18L64.856 89.614 15.01 104.092c-8.076 2.345-15.18 6.77-15.18 15.179v23.178z" fill="#63452c"/><g transform="translate(-1498.692 -632.545) scale(1.39999)"><circle style="font-variation-settings:normal" cx="1116" cy="483" r="30" fill="#5e5c64"/><g transform="translate(692 77)"><rect style="font-variation-settings:normal" width="8" height="12" x="448" y="412" rx="2" ry="2" fill="#cdab8f"/><path style="font-variation-settings:normal" d="M456 421a7 7 0 01-7 7v-7z" fill="#cdab8f"/><path style="font-variation-settings:normal" d="M454 414v7a5 5 0 01-10 0c0-1.573.742-5.054 2-5.998V414h3z" opacity=".124"/><circle style="font-variation-settings:normal" cx="452" cy="422" r="2" opacity=".124"/><rect style="font-variation-settings:normal" width="8" height="12" x="-400" y="412" rx="2" ry="2" transform="scale(-1 1)" fill="#cdab8f"/><path style="font-variation-settings:normal" d="M392 421a7 7 0 007 7v-7z" fill="#cdab8f"/><path style="font-variation-settings:normal" d="M394 414v7a5 5 0 0010 0c0-1.573-.742-5.054-2-5.998V414h-3z" opacity=".124"/><circle style="font-variation-settings:normal" cx="-396" cy="422" r="2" transform="scale(-1 1)" opacity=".124"/></g><path d="M1116 455a28 28 0 00-28 28v28c0 2.308.967 4.38 2.52 5.838l7.855 7.86A7.974 7.974 0 001104 527h24a7.974 7.974 0 005.625-2.303l7.856-7.86A7.973 7.973 0 001144 511v-28a28 28 0 00-28-28z" fill="#cdab8f"/><path style="font-variation-settings:normal" d="M1113.066 507.98c-1.87 0-5.066 1.014-5.066 1.014V510h15.954v-1.006s-3.197-1.013-5.067-1.013l-2.91.343z" opacity=".35" fill="#6c131e"/><path style="line-height:normal;font-variant-ligatures:normal;font-variant-position:normal;font-variant-caps:normal;font-variant-numeric:normal;font-variant-alternates:normal;font-variant-east-asian:normal;font-feature-settings:normal;font-variation-settings:normal;text-indent:0;text-align:start;text-decoration-line:none;text-decoration-style:solid;text-decoration-color:#000;text-transform:none;text-orientation:mixed;white-space:normal;shape-padding:0;shape-margin:0;inline-size:0;isolation:auto;mix-blend-mode:normal;solid-color:#000;solid-opacity:1" d="M1108 510h16c0 1.019-1.02 1.984-2 1.984h-12c-.964 0-2-.822-2-1.984z" color="#000" font-weight="400" font-family="sans-serif" overflow="visible" opacity=".137" fill="#fff"/><path style="font-variation-settings:normal" d="M1119.842 512.146a7.683 7.683 0 01-7.684 0" opacity=".25" fill-opacity=".402"/><g transform="translate(771 261)"><circle cx="334" cy="232" r="6" fill="url(#d)"/><circle cx="334" cy="232" r="4" fill="#47311f"/><circle cx="334" cy="232" r="2"/><circle cx="334" cy="230.383" r="1.383" fill="#fff"/></g><g transform="translate(793 261)"><circle cx="334" cy="232" r="6" fill="url(#e)"/><circle cx="334" cy="232" r="4" fill="#47311f"/><circle cx="334" cy="232" r="2"/><circle cx="334" cy="230.383" r="1.383" fill="#fff"/></g><path d="M1137 484h-20v7h20zm0 14h-20v7h20zm-42 0h20v7h-20z" fill="#cdab8f"/><path d="M1088.264 487v24c0 2.308.967 4.38 2.52 5.838l7.856 7.859a7.974 7.974 0 005.625 2.303h24a7.974 7.974 0 005.625-2.303l7.855-7.859a7.975 7.975 0 002.52-5.838v-24h-2v16.602c0 1.749-.74 3.27-1.329 3.856l-4.452 4.418a6.035 6.035 0 01-.401.363 2.598 2.598 0 01-2.202.161c-.888-.35-1.617-1.131-1.617-2.798V509c0-4.397-3.602-8-8-8h-16c-4.397 0-8 3.603-8 8v.602c0 1.667-.729 2.448-1.617 2.798a2.595 2.595 0 01-2.2-.161 6.035 6.035 0 01-.404-.363l-4.45-4.418c-.59-.586-1.328-2.107-1.328-3.856V487zm20 18h16c2.251 0 4 1.75 4 4v7c0 2.25-1.749 4-4 4h-16c-2.25 0-4-1.75-4-4v-7c0-2.25 1.75-4 4-4z" fill="#b89a80"/><g clip-path="url(#f)" transform="translate(1052 259)" opacity=".1"><path style="line-height:normal;font-variant-ligatures:normal;font-variant-position:normal;font-variant-caps:normal;font-variant-numeric:normal;font-variant-alternates:normal;font-variant-east-asian:normal;font-feature-settings:normal;font-variation-settings:normal;text-indent:0;text-align:start;text-decoration-line:none;text-decoration-style:solid;text-decoration-color:#000;text-transform:none;text-orientation:mixed;white-space:normal;shape-padding:0;shape-margin:0;inline-size:0;isolation:auto;mix-blend-mode:normal;solid-color:#000;solid-opacity:1" d="M56 242c-4.397 0-8 3.603-8 8v7c0 4.397 3.603 8 8 8h16c4.397 0 8-3.603 8-8v-7c0-4.397-3.603-8-8-8z" color="#000" font-weight="400" font-family="sans-serif" overflow="visible"/></g><path d="M1112.443 484h-20v7h20z" fill="#cdab8f"/><path style="line-height:normal;font-variant-ligatures:normal;font-variant-position:normal;font-variant-caps:normal;font-variant-numeric:normal;font-variant-alternates:normal;font-variant-east-asian:normal;font-feature-settings:normal;font-variation-settings:normal;text-indent:0;text-align:start;text-decoration-line:none;text-decoration-style:solid;text-decoration-color:#000;text-transform:none;text-orientation:mixed;white-space:normal;shape-padding:0;shape-margin:0;inline-size:0;isolation:auto;mix-blend-mode:normal;solid-color:#000;solid-opacity:1" d="M1116 454c-16.004 0-29 12.996-29 29v28a8.984 8.984 0 002.836 6.566l-.024-.021 7.858 7.861.002.002A8.987 8.987 0 001104 528h24c2.464 0 4.705-.99 6.328-2.592l.002-.002 7.858-7.861-.024.021A8.984 8.984 0 001145 511v-28c0-16.004-12.996-29-29-29zm0 2c14.924 0 27 12.077 27 27v28a6.963 6.963 0 01-2.203 5.11l-.012.01-7.863 7.866A6.96 6.96 0 011128 526h-24a6.96 6.96 0 01-4.918-2.01l-.004-.004-7.863-7.867-.012-.01A6.963 6.963 0 011089 511v-28c0-14.923 12.076-27 27-27z" color="#000" font-weight="400" font-family="sans-serif" overflow="visible" fill="#86664c"/><path id="h" style="font-variation-settings:normal" d="M1118 479.546l20 3.636V485h-20z" display="inline" opacity=".876" vector-effect="none" fill="url(#g)" fill-opacity="1" stroke="none" stroke-width="7" stroke-linecap="square" stroke-linejoin="miter" stroke-miterlimit="4" stroke-dasharray="none" stroke-dashoffset="0" stroke-opacity="1" stop-color="#000"/><use xlink:href="#h" transform="matrix(-1 0 0 1 2232 2)" width="100%" height="100%"/><path style="font-variation-settings:normal" fill="#77767b" d="M1088 480.882h2V495h-2zm54-.882h2v15h-2zm-54 17.118h2V499h-2zm54-.118h2v2h-2z"/><g transform="translate(1052 260)"><g id="j" fill="none" stroke="#241f31" stroke-width="1" stroke-miterlimit="4" stroke-dasharray="none"><path style="font-variation-settings:normal" d="M68 230.023c-.547 0-1.065.213-1.45.573-.383.36-.636.912-.519 1.498l1 5c.095.475.291.93.617 1.285.327.355.805.598 1.352.598h17c1.087 0 1.977-.89 1.977-1.977v-5c0-1.087-.89-1.977-1.977-1.977z" opacity=".483" fill="#fff" stroke="none" stroke-linecap="square"/><path style="font-variation-settings:normal" d="M67.117 235.086L66.5 232c-.163-.815.669-1.5 1.5-1.5h18c.831 0 1.5.669 1.5 1.5v2" stroke-linecap="round"/><path style="font-variation-settings:normal" d="M88.5 231.5l4-4v2l-4 4z" fill="url(#i)" stroke="none" stroke-linecap="round" transform="translate(.5 .5)"/><path style="font-variation-settings:normal" d="M74.219 77.035c-.174.31-.264.675-.188 1.059l1 5c.095.475.291.93.617 1.285.327.355.805.598 1.352.598h17c1.087 0 1.977-.89 1.977-1.977v-2c0 1.087-.89 1.977-1.977 1.977H77a1.834 1.834 0 01-1.352-.598c-.326-.356-.522-.81-.617-1.285z" transform="translate(-8 156)" opacity=".07" fill="#000" stroke="none" stroke-linecap="square"/></g><use xlink:href="#j" transform="matrix(-1 0 0 1 128 0)" width="100%" height="100%"/><path d="M62 232s1-.5 2-.5 2 .5 2 .5" fill="none" stroke="#241f31" stroke-linecap="round"/><path style="font-variation-settings:normal" fill="#9a9996" d="M87 232h2v2h-2z"/><path style="font-variation-settings:normal" fill="#c0bfbc" d="M39 232h2v2h-2z"/></g><path d="M1115.855 453c-16.512.08-29.855 13.488-29.855 30h4a26 26 0 0110.646-20.98l30.71-.002A26 26 0 011142 483h4c0-16.569-13.431-30-30-30a29 29 0 00-.144 0z" fill="#24222e"/><path style="font-variation-settings:normal" d="M1115.856 453c-.841.004-1.672.05-2.496.123v8.896l9.245-.001v-8.279a30.074 30.074 0 00-6.75-.739z" fill="#77767b"/></g></svg>