<?xml version="1.0" encoding="UTF-8"?>
<svg height="128px" viewBox="0 0 128 128" width="128px" xmlns="http://www.w3.org/2000/svg" xmlns:xlink="http://www.w3.org/1999/xlink">
    <linearGradient id="a" gradientUnits="userSpaceOnUse" x1="11.954132" x2="117" y1="114" y2="114">
        <stop offset="0" stop-color="#5e5c64"/>
        <stop offset="0.0361894" stop-color="#9b99a2"/>
        <stop offset="0.0802922" stop-color="#5e5c64"/>
        <stop offset="0.904224" stop-color="#5e5c64"/>
        <stop offset="0.959366" stop-color="#7f7c87"/>
        <stop offset="0.978661" stop-color="#4c4c53"/>
        <stop offset="1" stop-color="#d3d2d7"/>
    </linearGradient>
    <linearGradient id="b" gradientUnits="userSpaceOnUse" x1="48" x2="64" y1="19.228516" y2="104">
        <stop offset="0" stop-color="#241f31"/>
        <stop offset="1" stop-color="#3d3846"/>
    </linearGradient>
    <path d="m 20 16 h 88 c 4.417969 0 8 3.582031 8 8 v 84 c 0 4.417969 -3.582031 8 -8 8 h -88 c -4.417969 0 -8 -3.582031 -8 -8 v -84 c 0 -4.417969 3.582031 -8 8 -8 z m 0 0" fill="url(#a)"/>
    <path d="m 20 12 h 88 c 4.417969 0 8 3.582031 8 8 v 84 c 0 4.417969 -3.582031 8 -8 8 h -88 c -4.417969 0 -8 -3.582031 -8 -8 v -84 c 0 -4.417969 3.582031 -8 8 -8 z m 0 0" fill="url(#b)"/>
    <path d="m 20 15.921875 c -2.328125 0 -4.078125 1.75 -4.078125 4.078125 v 84 c 0 2.328125 1.75 4.078125 4.078125 4.078125 h 88 c 2.328125 0 4.078125 -1.75 4.078125 -4.078125 v -84 c 0 -2.328125 -1.75 -4.078125 -4.078125 -4.078125 z m 0 0" fill="url(#b)"/>
    <path d="m 18 84 c -1.105469 0 -2 0.894531 -2 2 v 18 c 0 2.09375 1.90625 4 4 4 h 88 c 2.09375 0 4 -1.90625 4 -4 v -18 c 0 -1.105469 -0.894531 -2 -2 -2 z m 82 2 c 5.523438 0 10 4.476562 10 10 s -4.476562 10 -10 10 s -10 -4.476562 -10 -10 s 4.476562 -10 10 -10 z m -72.570312 3.238281 c 1.714843 0 3.050781 0.613281 4.003906 1.847657 c 0.960937 1.226562 1.441406 2.9375 1.441406 5.132812 c 0 2.199219 -0.476562 3.910156 -1.429688 5.132812 c -0.957031 1.21875 -2.292968 1.828126 -4.015624 1.828126 c -1.710938 0 -3.042969 -0.609376 -4 -1.828126 c -0.953126 -1.222656 -1.429688 -2.933593 -1.429688 -5.132812 s 0.476562 -3.914062 1.429688 -5.140625 c 0.960937 -1.226563 2.292968 -1.839844 4 -1.839844 z m 12.589843 0 c 1.714844 0 3.046875 0.613281 4 1.847657 c 0.960938 1.226562 1.441407 2.9375 1.441407 5.132812 c 0 2.199219 -0.476563 3.910156 -1.429688 5.132812 c -0.957031 1.21875 -2.292969 1.828126 -4.011719 1.828126 c -1.714843 0 -3.046875 -0.609376 -4 -1.828126 c -0.957031 -1.222656 -1.433593 -2.933593 -1.433593 -5.132812 s 0.476562 -3.914062 1.433593 -5.140625 s 2.292969 -1.839844 4 -1.839844 z m 30.925781 0 c 0.960938 0 1.796876 0.171875 2.515626 0.519531 c 0.71875 0.339844 1.273437 0.808594 1.667968 1.410157 c 0.402344 0.601562 0.601563 1.292969 0.601563 2.078125 c 0 0.503906 -0.101563 1.003906 -0.300781 1.496094 c -0.195313 0.492187 -0.546876 1.042968 -1.054688 1.65625 c -0.507812 0.609374 -1.226562 1.339843 -2.15625 2.1875 l -2.050781 2.027343 v 0.097657 h 5.746093 v 2.289062 h -9.609374 v -2.007812 l 4.8125 -4.511719 c 0.617187 -0.597657 1.085937 -1.121094 1.414062 -1.566407 c 0.335938 -0.449218 0.5 -0.945312 0.5 -1.496093 c 0 -0.605469 -0.199219 -1.082031 -0.601562 -1.429688 c -0.394532 -0.351562 -0.894532 -0.527343 -1.503907 -0.527343 c -0.628906 0 -1.136719 0.1875 -1.519531 0.5625 c -0.378906 0.378906 -0.566406 0.898437 -0.566406 1.558593 h -2.664063 c 0 -0.878906 0.203125 -1.644531 0.605469 -2.292969 c 0.40625 -0.65625 0.96875 -1.164062 1.6875 -1.515624 c 0.714844 -0.359376 1.539062 -0.535157 2.476562 -0.535157 z m -11.796874 0.179688 h 3.496093 v 8.925781 h 1.691407 v 2.238281 h -1.691407 v 2.417969 h -2.675781 v -2.417969 h -6.496094 v -2.195312 z m 38.851562 2.582031 c -1.109375 0 -2 0.890625 -2 2 v 4 c 0 1.109375 0.890625 2 2 2 h 4 c 1.109375 0 2 -0.890625 2 -2 v -4 c 0 -1.109375 -0.890625 -2 -2 -2 z m -48.5625 -0.742188 c 0.441406 0 0.816406 0.152344 1.117188 0.457032 c 0.304687 0.296875 0.457031 0.667968 0.457031 1.113281 s -0.152344 0.816406 -0.457031 1.121094 c -0.300782 0.296875 -0.675782 0.445312 -1.117188 0.445312 c -0.445312 0 -0.820312 -0.148437 -1.125 -0.445312 c -0.300781 -0.304688 -0.457031 -0.675781 -0.457031 -1.121094 s 0.15625 -0.816406 0.457031 -1.113281 c 0.304688 -0.304688 0.679688 -0.457032 1.125 -0.457032 z m -22.007812 0.273438 c -0.832032 0 -1.46875 0.414062 -1.917969 1.230469 c -0.453125 0.816406 -0.679688 1.96875 -0.679688 3.457031 s 0.222657 2.636719 0.667969 3.445312 c 0.449219 0.808594 1.09375 1.210938 1.929688 1.210938 c 0.839843 0 1.484374 -0.402344 1.933593 -1.210938 c 0.453125 -0.808593 0.675781 -1.957031 0.675781 -3.445312 c 0 -1.496094 -0.222656 -2.652344 -0.675781 -3.464844 c -0.449219 -0.8125 -1.09375 -1.222656 -1.933593 -1.222656 z m 12.589843 0 c -0.832031 0 -1.472656 0.414062 -1.925781 1.230469 c -0.449219 0.816406 -0.671875 1.96875 -0.671875 3.457031 s 0.222656 2.636719 0.664063 3.445312 c 0.453124 0.808594 1.09375 1.210938 1.933593 1.210938 c 0.839844 0 1.480469 -0.402344 1.929688 -1.210938 c 0.453125 -0.808593 0.675781 -1.957031 0.675781 -3.445312 c 0 -1.496094 -0.222656 -2.652344 -0.675781 -3.464844 c -0.449219 -0.8125 -1.089844 -1.222656 -1.929688 -1.222656 z m 19.898438 0.949219 l -3.636719 5.75 v 0.113281 h 3.742188 v -5.863281 z m -10.480469 5.542969 c 0.441406 0 0.816406 0.152343 1.117188 0.457031 c 0.304687 0.296875 0.457031 0.664062 0.457031 1.109375 c 0 0.445312 -0.152344 0.816406 -0.457031 1.121094 c -0.300782 0.296874 -0.675782 0.445312 -1.117188 0.445312 c -0.445312 0 -0.820312 -0.148438 -1.125 -0.445312 c -0.300781 -0.304688 -0.457031 -0.675782 -0.457031 -1.121094 c 0 -0.445313 0.15625 -0.8125 0.457031 -1.109375 c 0.304688 -0.304688 0.679688 -0.457031 1.125 -0.457031 z m 0 0" fill="#ff7800"/>
    <path d="m 85 88 c 0.550781 0 1 0.449219 1 1 v 14 c 0 0.550781 -0.449219 1 -1 1 s -1 -0.449219 -1 -1 v -14 c 0 -0.550781 0.449219 -1 1 -1 z m 0 0" fill="#e66100"/>
    <path d="m 25 36 c 0.550781 0 1 0.449219 1 1 v 24 c 0 0.550781 -0.449219 1 -1 1 s -1 -0.449219 -1 -1 v -24 c 0 -0.550781 0.449219 -1 1 -1 z m 0 0" fill="#f6f5f4"/>
    <path d="m 33 42 c 0.550781 0 1 0.449219 1 1 v 12 c 0 0.550781 -0.449219 1 -1 1 s -1 -0.449219 -1 -1 v -12 c 0 -0.550781 0.449219 -1 1 -1 z m 0 0" fill="#f6f5f4"/>
    <path d="m 41 38 c 0.550781 0 1 0.449219 1 1 v 20 c 0 0.550781 -0.449219 1 -1 1 s -1 -0.449219 -1 -1 v -20 c 0 -0.550781 0.449219 -1 1 -1 z m 0 0" fill="#f6f5f4"/>
    <path d="m 49 32 c 0.550781 0 1 0.449219 1 1 v 32 c 0 0.550781 -0.449219 1 -1 1 s -1 -0.449219 -1 -1 v -32 c 0 -0.550781 0.449219 -1 1 -1 z m 0 0" fill="#f6f5f4"/>
    <path d="m 57 32 c 0.550781 0 1 0.449219 1 1 v 32 c 0 0.550781 -0.449219 1 -1 1 s -1 -0.449219 -1 -1 v -32 c 0 -0.550781 0.449219 -1 1 -1 z m 0 0" fill="#f6f5f4"/>
    <path d="m 65 34 c 0.550781 0 1 0.449219 1 1 v 28 c 0 0.550781 -0.449219 1 -1 1 s -1 -0.449219 -1 -1 v -28 c 0 -0.550781 0.449219 -1 1 -1 z m 0 0" fill="#f6f5f4"/>
    <path d="m 73 44 c 0.550781 0 1 0.449219 1 1 v 8 c 0 0.550781 -0.449219 1 -1 1 s -1 -0.449219 -1 -1 v -8 c 0 -0.550781 0.449219 -1 1 -1 z m 0 0" fill="#f6f5f4"/>
    <path d="m 78.828125 16 c -0.472656 0 -0.902344 0.285156 -1.082031 0.722656 c -0.179688 0.4375 -0.082032 0.941406 0.253906 1.277344 l 2 2 v 56 l -2 2 c -0.335938 0.335938 -0.433594 0.839844 -0.253906 1.277344 c 0.179687 0.4375 0.609375 0.722656 1.082031 0.722656 h 4.34375 c 0.472656 0 0.902344 -0.285156 1.082031 -0.722656 c 0.179688 -0.4375 0.082032 -0.941406 -0.253906 -1.277344 l -2 -2 v -56 l 2 -2 c 0.335938 -0.335938 0.433594 -0.839844 0.253906 -1.277344 c -0.179687 -0.4375 -0.609375 -0.722656 -1.082031 -0.722656 z m 0 0" fill="#ed333b"/>
    <path d="m 19 74 h 8 c 1.65625 0 3 1.34375 3 3 s -1.34375 3 -3 3 h -8 c -1.65625 0 -3 -1.34375 -3 -3 s 1.34375 -3 3 -3 z m 0 0" fill="#77767b"/>
    <g fill="#f6f5f4">
        <path d="m 21 32 c 0.550781 0 1 0.449219 1 1 v 32 c 0 0.550781 -0.449219 1 -1 1 s -1 -0.449219 -1 -1 v -32 c 0 -0.550781 0.449219 -1 1 -1 z m 0 0"/>
        <path d="m 29 38.222656 c 0.550781 0 1 0.445313 1 1 v 19.554688 c 0 0.554687 -0.449219 1 -1 1 s -1 -0.445313 -1 -1 v -19.554688 c 0 -0.554687 0.449219 -1 1 -1 z m 0 0"/>
        <path d="m 37 43.195312 c 0.550781 0 1 0.449219 1 1 v 9.609376 c 0 0.550781 -0.449219 1 -1 1 s -1 -0.449219 -1 -1 v -9.609376 c 0 -0.550781 0.449219 -1 1 -1 z m 0 0"/>
        <path d="m 45 39.878906 c 0.550781 0 1 0.449219 1 1 v 16.242188 c 0 0.550781 -0.449219 1 -1 1 s -1 -0.449219 -1 -1 v -16.242188 c 0 -0.550781 0.449219 -1 1 -1 z m 0 0"/>
        <path d="m 53 34.90625 c 0.550781 0 1 0.449219 1 1 v 26.1875 c 0 0.550781 -0.449219 1 -1 1 s -1 -0.449219 -1 -1 v -26.1875 c 0 -0.550781 0.449219 -1 1 -1 z m 0 0"/>
        <path d="m 61 34.90625 c 0.550781 0 1 0.449219 1 1 v 26.1875 c 0 0.550781 -0.449219 1 -1 1 s -1 -0.449219 -1 -1 v -26.1875 c 0 -0.550781 0.449219 -1 1 -1 z m 0 0"/>
        <path d="m 69 36.5625 c 0.550781 0 1 0.449219 1 1 v 22.875 c 0 0.550781 -0.449219 1 -1 1 s -1 -0.449219 -1 -1 v -22.875 c 0 -0.550781 0.449219 -1 1 -1 z m 0 0"/>
        <path d="m 77 44.855469 c 0.550781 0 1 0.445312 1 1 v 6.289062 c 0 0.554688 -0.449219 1 -1 1 s -1 -0.445312 -1 -1 v -6.289062 c 0 -0.554688 0.449219 -1 1 -1 z m 0 0"/>
    </g>
    <path d="m 37 74 c 1.65625 0 3 1.34375 3 3 s -1.34375 3 -3 3 s -3 -1.34375 -3 -3 s 1.34375 -3 3 -3 z m 0 0" fill="#5e5c64"/>
    <path d="m 45 74 c 1.65625 0 3 1.34375 3 3 s -1.34375 3 -3 3 s -3 -1.34375 -3 -3 s 1.34375 -3 3 -3 z m 0 0" fill="#5e5c64"/>
    <path d="m 53 74 c 1.65625 0 3 1.34375 3 3 s -1.34375 3 -3 3 s -3 -1.34375 -3 -3 s 1.34375 -3 3 -3 z m 0 0" fill="#5e5c64"/>
    <path d="m 63 74 h 8 c 1.65625 0 3 1.34375 3 3 s -1.34375 3 -3 3 h -8 c -1.65625 0 -3 -1.34375 -3 -3 s 1.34375 -3 3 -3 z m 0 0" fill="#77767b"/>
    <path d="m 107 74 c -1.660156 0 -3 1.339844 -3 3 s 1.339844 3 3 3 h 2.949219 c 1.132812 0 2.050781 -0.917969 2.046875 -2.050781 c -0.003906 -0.632813 -0.003906 -1.265625 0 -1.898438 c 0.011718 -1.132812 -0.863282 -2.050781 -1.996094 -2.050781 z m -10 0 c 1.660156 0 3 1.339844 3 3 s -1.339844 3 -3 3 s -3 -1.339844 -3 -3 s 1.339844 -3 3 -3 z m -8 0 c 1.660156 0 3 1.339844 3 3 s -1.339844 3 -3 3 s -3 -1.339844 -3 -3 s 1.339844 -3 3 -3 z m 0 0" fill="#5e5c64" fill-opacity="0.228788"/>
</svg>
