<svg xmlns="http://www.w3.org/2000/svg" height="800" width="1600"><defs><linearGradient id="a"><stop offset="0" stop-color="#646368"/><stop offset=".06" stop-color="#88878b"/><stop offset=".133" stop-color="#77767b"/><stop offset=".827" stop-color="#77767b"/><stop offset=".915" stop-color="#9f9ea2"/><stop offset="1" stop-color="#656468"/></linearGradient></defs><path fill="#33d17a" d="M400 0h400v400H400z"/><path fill="#f6d32d" d="M800 0h400v400H800z"/><path fill="#ff7800" d="M1200 0h400v400h-400z"/><path fill="#e01b24" d="M1200 400h400v400h-400z"/><path fill="#9141ac" d="M800 400h400v400H800z"/><path fill="#986a44" d="M400 400h400v400H400z"/><path fill="#77767b" d="M0 400h400v400H0z"/><path fill="#3584e4" d="M0 0h400v400H0z"/><g transform="matrix(4.62671 0 0 4.62671 60.072 462.678)" stroke="#fff" stroke-width="2" stroke-linecap="round" fill="none"><path style="font-variation-settings:normal" d="M8 40h8l13.651-25.027a7.403 7.403 169.423 0111.282-2.107L47 18l-8.844 15.898A11.873 11.873 149.543 0127.78 40H27l-4.102 7a10.004 10.004 150.183 01-8.631 4.948H9L13 46"/><circle style="font-variation-settings:normal" cx="35.943" cy="17.016" r=".993"/><path style="font-variation-settings:normal" d="M38 40h17"/></g><g transform="matrix(4.62671 0 0 4.62671 50.413 46.757)" stroke="#fff" stroke-width="2" stroke-linecap="round" fill="none"><path style="font-variation-settings:normal;marker:none" d="M15.903 55.29a4.002 3.643 0 01-2 3.155 4.002 3.643 0 01-4.003 0 4.002 3.643 0 01-2-3.155M23.915 55.35a4.002 3.643 0 00-2-3.154 4.002 3.643 0 00-4.002 0 4.002 3.643 0 00-2.001 3.155"/><path style="font-variation-settings:normal;marker:none" d="M31.917 55.29a4.002 3.643 0 01-2 3.155 4.002 3.643 0 01-4.002 0 4.002 3.643 0 01-2.001-3.155M39.93 55.35a4.002 3.643 0 00-2.001-3.154 4.002 3.643 0 00-4.002 0 4.002 3.643 0 00-2.001 3.155"/><path style="font-variation-settings:normal;marker:none" d="M47.85 55.29a4.002 3.643 0 01-2 3.155 4.002 3.643 0 01-4.002 0 4.002 3.643 0 01-2-3.155M55.863 55.35a4.002 3.643 0 00-2-3.154 4.002 3.643 0 00-4.003 0 4.002 3.643 0 00-2 3.155"/><path style="font-variation-settings:normal" d="M19.997 51.302V35H56c0 7.31-1 12-6 17"/><circle style="font-variation-settings:normal;marker:none" cx="27.991" cy="43.013" r="2.998"/><circle style="font-variation-settings:normal;marker:none" cx="38.018" cy="43.013" r="2.998"/><path style="font-variation-settings:normal" d="M31 35V8L14 30h17"/></g><g transform="matrix(4.62671 0 0 4.62671 456.997 56.027)" stroke="#fff" stroke-width="2" fill="none"><rect style="font-variation-settings:normal;marker:none" width="16" height="32" x="8" y="24" rx="0" ry="0" stroke-linecap="round"/><rect style="font-variation-settings:normal;marker:none" width="16" height="39" x="24" y="17" rx="0" ry="0" stroke-linecap="round"/><rect style="font-variation-settings:normal;marker:none" width="16" height="16" x="40" y="40" rx="0" ry="0" stroke-linecap="round"/><path style="font-variation-settings:normal;marker:none" d="M48 23l8-8v25h-8z" stroke-linecap="round"/><rect style="font-variation-settings:normal;marker:none" width="10" height="5" x="27" y="12" rx="0" ry="0" stroke-linecap="round"/><path style="font-variation-settings:normal" d="M32 12V5" stroke-linecap="round"/><path style="font-variation-settings:normal" d="M27 21h10M27 25h10M27 29h10M27 33h10M27 37h10"/><rect style="font-variation-settings:normal;marker:none" width="8" height="8" x="28" y="48" rx="0" ry="0"/><path style="font-variation-settings:normal" d="M45 45h6M45 50h6M27 41h10"/><circle style="font-variation-settings:normal;marker:none" cx="15.872" cy="30.412" r="2.5"/><circle style="font-variation-settings:normal;marker:none" cx="15.872" cy="39.377" r="2.5"/><circle style="font-variation-settings:normal;marker:none" cx="15.872" cy="48.421" r="2.5"/></g><g stroke="#fff" fill="none" stroke-width="2"><path d="M594.88 504.701c-36.24 0-65.672 31.325-65.86 67.566a30.726 30.726 0 00-.715-.009c-18.285 0-33.108 14.823-33.108 33.108 0 18.285 14.823 33.108 33.108 33.108h66.575c24.806-.159 45.408.198 67.188-.041 26.7 0 46.402-23.028 46.402-49.723 0-27.483-22.28-51.807-49.763-51.807-2.317 0-4.632.162-6.927.485-13.166-20.774-30.165-32.687-56.9-32.687z" stroke-width="9.25342"/><path style="font-variation-settings:normal" d="M599.786 671.004l-12.095 41.467M562.845 670.755l-12.167 41.716M634.445 671.147l-12.053 41.324" stroke-linecap="round" stroke-width="9.25342"/></g><g transform="matrix(4.62671 0 0 4.62671 854.314 51.654)" stroke="#fff" fill="none" stroke-width="2" stroke-linecap="round"><path style="font-variation-settings:normal" d="M8 55a27.427 27.427 0 012.743-2.339c.68-.506 1.39-.984 2.17-1.316.78-.332 1.64-.513 2.482-.406.719.091 1.4.389 2.016.771.616.382 1.174.849 1.734 1.31.56.462 1.124.921 1.75 1.288.626.366 1.32.638 2.042.692.844.063 1.69-.173 2.449-.547.76-.374 1.444-.881 2.117-1.393.674-.513 1.345-1.035 2.087-1.443.741-.408 1.564-.7 2.41-.714.855-.013 1.695.258 2.453.653.758.395 1.445.912 2.13 1.423.685.512 1.376 1.025 2.138 1.411.763.386 1.609.643 2.463.61.81-.032 1.593-.323 2.299-.722.706-.4 1.344-.906 1.984-1.404.64-.498 1.289-.993 2.009-1.366.72-.373 1.52-.623 2.33-.596.744.025 1.466.282 2.115.647.648.365 1.23.837 1.794 1.321.788.677 1.55 1.384 2.285 2.12M8 39a27.427 27.427 0 012.743-2.339c.68-.506 1.39-.984 2.17-1.316.78-.332 1.64-.513 2.482-.406.719.091 1.4.389 2.016.771.616.382 1.174.849 1.734 1.31.56.462 1.124.921 1.75 1.288.626.366 1.32.638 2.042.692.844.063 1.69-.173 2.449-.547.76-.374 1.444-.881 2.117-1.393.674-.513 1.345-1.035 2.087-1.443.741-.408 1.564-.7 2.41-.714.855-.013 1.695.258 2.453.653.758.395 1.445.912 2.13 1.423.685.512 1.376 1.025 2.138 1.411.763.386 1.609.643 2.463.61.81-.032 1.593-.323 2.299-.722.706-.4 1.344-.906 1.984-1.404.64-.498 1.289-.993 2.009-1.366.72-.373 1.52-.623 2.33-.596.744.025 1.466.282 2.115.647.648.365 1.23.837 1.794 1.321.788.677 1.55 1.384 2.285 2.12M8 23a11.512 11.512 0 012.743-2.339A11.543 11.543 0 0116 19m18 0l2.592 1.952c.683.514 1.371 1.031 2.132 1.423.76.391 1.605.655 2.46.625.81-.028 1.594-.318 2.3-.716.707-.399 1.346-.905 1.985-1.404.64-.498 1.288-.994 2.007-1.369.72-.375 1.52-.625 2.33-.599.744.025 1.467.281 2.115.647.648.365 1.23.837 1.794 1.321A40.75 40.75 0 0156 23"/><path style="font-variation-settings:normal" d="M16 35.012V28.6C16 19 19.563 11 25.5 8c5.938 3 9.5 11 9.5 20.6v7.278"/><circle style="font-variation-settings:normal" r=".993" cy="21.016" cx="22.943"/></g><g transform="matrix(4.62671 0 0 4.62671 1256.749 12.073)" stroke="#fff" stroke-width="2" stroke-linecap="round" fill="none"><path style="font-variation-settings:normal" d="M8 56h48M8 48h35.757A10.243 10.243 157.5 0051 45a7.071 7.071 90 000-10l-7-7a13.657 13.657 22.5 00-9.657-4H8"/><circle style="font-variation-settings:normal;marker:none" cx="12" cy="32" r="3"/><circle style="font-variation-settings:normal;marker:none" cx="24.929" cy="32" r="3"/><path style="font-variation-settings:normal" d="M18 28v16M31 28v16M45 29h-6a3 3 135 00-3 3 3 3 45 003 3h12"/><circle style="font-variation-settings:normal;marker:none" cx="19.944" cy="52.977" r="3"/><circle style="font-variation-settings:normal;marker:none" cx="27.763" cy="52.977" r="3"/></g><g transform="matrix(4.62671 0 0 4.62671 852.04 442.015)" stroke="#fff" fill="none" stroke-width="2" stroke-linecap="round"><path style="font-variation-settings:normal" d="M9 55a24.02 24.02 112.38 007-17v-9a13 13 135 0113-13h7a12 12 45 0112 12 4 4 135 01-4 4 4 4 135 00-4 4 4 4 135 01-4 4 4 4 45 01-4-4v-8a4 4 45 00-4-4 4 4 135 00-4 4v14a14.485 14.485 67.5 004.243 10.243A13.661 13.661 21.06 0038 56h18"/><circle style="font-variation-settings:normal" cx="45.919" cy="43.003" r="3.037"/></g><g stroke="#fff" stroke-linecap="round" stroke-width="2" fill="none"><path d="M1303.763 585.898h159.578M1463.341 526.373c10.724 0 20.635 5.672 25.993 14.879a29.52 29.52 0 010 29.759c-5.358 9.214-15.269 14.887-25.993 14.887M1303.763 608.878h171.395M1445.948 678.806c13.226 13.108 33.672 15.784 49.867 6.51 16.195-9.268 24.086-28.168 19.247-46.074-4.838-17.913-21.206-30.364-39.904-30.364M1303.763 631.851h98.197M1384.182 654.204c2.396 8.893 11.259 14.49 20.4 12.891 9.142-1.599 15.54-9.864 14.726-19.034-.806-9.17-8.554-16.21-17.83-16.21" stroke-width="9.25342"/></g></svg>