<?xml version="1.0" encoding="UTF-8" standalone="no"?>
<svg
   xmlns:dc="http://purl.org/dc/elements/1.1/"
   xmlns:cc="http://creativecommons.org/ns#"
   xmlns:rdf="http://www.w3.org/1999/02/22-rdf-syntax-ns#"
   xmlns:svg="http://www.w3.org/2000/svg"
   xmlns="http://www.w3.org/2000/svg"
   xmlns:xlink="http://www.w3.org/1999/xlink"
   xmlns:sodipodi="http://sodipodi.sourceforge.net/DTD/sodipodi-0.dtd"
   xmlns:inkscape="http://www.inkscape.org/namespaces/inkscape"
   inkscape:version="1.0 (4035a4fb49, 2020-05-01)"
   inkscape:export-ydpi="96"
   inkscape:export-xdpi="96"
   inkscape:export-filename="/var/home/jimmac/SparkleShare/app-illustrations/assets/initial-setup/initial-setup-welcome.png"
   sodipodi:docname="initial-setup-welcome.svg"
   id="svg313"
   version="1.1"
   height="754"
   width="1920">
  <metadata
     id="metadata317">
    <rdf:RDF>
      <cc:Work
         rdf:about="">
        <dc:format>image/svg+xml</dc:format>
        <dc:type
           rdf:resource="http://purl.org/dc/dcmitype/StillImage" />
      </cc:Work>
    </rdf:RDF>
  </metadata>
  <sodipodi:namedview
     inkscape:current-layer="svg313"
     inkscape:window-maximized="0"
     inkscape:window-y="23"
     inkscape:window-x="26"
     inkscape:cy="377"
     inkscape:cx="960"
     inkscape:zoom="0.690625"
     showgrid="false"
     id="namedview315"
     inkscape:window-height="1376"
     inkscape:window-width="2560"
     inkscape:pageshadow="2"
     inkscape:pageopacity="0"
     guidetolerance="10"
     gridtolerance="10"
     objecttolerance="10"
     borderopacity="1"
     bordercolor="#666666"
     pagecolor="#ffffff" />
  <defs
     id="defs28">
    <linearGradient
       y2="250"
       x2="64"
       y1="180"
       x1="64"
       gradientTransform="matrix(1.3 0 0 .83333 -19.2 34)"
       gradientUnits="userSpaceOnUse"
       id="m"
       xlink:href="#c" />
    <linearGradient
       xlink:href="#c"
       id="k"
       gradientUnits="userSpaceOnUse"
       gradientTransform="matrix(1.3 0 0 .83333 -19.2 34)"
       x1="64"
       y1="180"
       x2="64"
       y2="250" />
    <linearGradient
       id="a">
      <stop
         id="stop4"
         stop-color="#d0bb8e"
         offset="0" />
      <stop
         id="stop6"
         stop-color="#fff"
         offset="1" />
    </linearGradient>
    <linearGradient
       y2="292"
       x2="64"
       y1="254"
       x1="64"
       gradientTransform="matrix(1.3 0 0 1 -19.2 16.87)"
       gradientUnits="userSpaceOnUse"
       id="g"
       xlink:href="#b" />
    <linearGradient
       id="b">
      <stop
         id="stop10"
         stop-color="#cdab8f"
         offset="0" />
      <stop
         id="stop12"
         stop-color="#d3b69d"
         offset="1" />
    </linearGradient>
    <linearGradient
       y2="292"
       x2="64"
       y1="254"
       x1="64"
       gradientTransform="matrix(1.3 0 0 1 -19.2 -4)"
       gradientUnits="userSpaceOnUse"
       id="l"
       xlink:href="#b" />
    <linearGradient
       gradientTransform="matrix(-.03667 .05186 .03667 .05186 180.124 169.116)"
       y2="-127.399"
       x2="158.518"
       y1="-97.698"
       x1="128.817"
       gradientUnits="userSpaceOnUse"
       id="e"
       xlink:href="#a" />
    <linearGradient
       id="c">
      <stop
         id="stop17"
         stop-color="#e3cfbf"
         offset="0" />
      <stop
         id="stop19"
         stop-color="#e7d5c7"
         offset="1" />
    </linearGradient>
    <linearGradient
       xlink:href="#b"
       id="h"
       gradientUnits="userSpaceOnUse"
       gradientTransform="matrix(1.3 0 0 1 -19.2 -4)"
       x1="64"
       y1="254"
       x2="64"
       y2="292" />
    <linearGradient
       xlink:href="#c"
       id="i"
       gradientUnits="userSpaceOnUse"
       gradientTransform="matrix(1.3 0 0 .83333 -19.2 34)"
       x1="64"
       y1="180"
       x2="64"
       y2="250" />
    <linearGradient
       xlink:href="#b"
       id="j"
       gradientUnits="userSpaceOnUse"
       gradientTransform="matrix(1.3 0 0 1 -19.2 -4)"
       x1="64"
       y1="254"
       x2="64"
       y2="292" />
    <clipPath
       id="d"
       clipPathUnits="userSpaceOnUse">
      <path
         id="path25"
         stroke-width="1.357"
         fill="#4a86cf"
         overflow="visible"
         color="#000"
         style="marker:none"
         d="M2330.729-970.526h1007.5V-1366.5h-1007.5z" />
    </clipPath>
  </defs>
  <path
     id="path30"
     fill="#1c71d8"
     overflow="visible"
     color="#000"
     style="marker:none"
     d="M0 754h1920V0H0z" />
  <g
     id="g311"
     transform="translate(-4440.203 2603.279) scale(1.90507)"
     clip-path="url(#d)">
    <g
       id="g50"
       transform="matrix(0 2.88666 -2.88666 0 3741.302 -1534.524)">
      <path
         id="path32"
         fill="url(#e)"
         d="M170.003 170.124l-1.993 1.993h3.986z"
         style="marker:none" />
      <path
         id="path34"
         fill="#424048"
         style="marker:none"
         d="M170.003 170.124l-.797.797h1.595z" />
      <path
         id="path36"
         fill="#f6d32d"
         d="M171.598 172.117h-3.189v27.633h3.189z" />
      <path
         id="path38"
         fill="#f9f06b"
         d="M169.184 172.117h-1.174v27.643l1.174-.01z" />
      <path
         id="path40"
         fill="#e5a50a"
         d="M170.823 172.117h1.173v27.643l-1.173-.01z" />
      <rect
         id="rect42"
         fill="#f66151"
         style="marker:none"
         width="3.969"
         height="3.969"
         x="168.01"
         y="199.76"
         rx="1.554"
         ry="1.554" />
      <path
         id="path44"
         fill="#ed333b"
         d="M169.565 199.76c-.056 0-.111.003-.166.01a1.55 1.55 0 011.39 1.545v.86a1.55 1.55 0 01-1.39 1.545c.055.006.11.01.166.01h.86c.86 0 1.554-.694 1.554-1.555v-.86c0-.861-.693-1.555-1.554-1.555z"
         style="marker:none" />
      <rect
         id="rect46"
         fill="#f6f5f4"
         ry="0"
         rx="0"
         y="199.76"
         x="168.01"
         height="1.323"
         width="3.969"
         style="marker:none" />
      <rect
         id="rect48"
         fill="#deddda"
         style="marker:none"
         width="1.191"
         height="1.323"
         x="170.789"
         y="199.76"
         rx="0"
         ry="0" />
    </g>
    <g
       id="g64"
       transform="matrix(2.19794 0 0 2.19794 2477.53 -1455.549)">
      <rect
         id="rect52"
         fill-opacity=".102"
         ry="11.642"
         rx="11.642"
         y="158.75"
         x="248.708"
         height="35.454"
         width="23.283"
         style="marker:none" />
      <rect
         id="rect54"
         fill="#deddda"
         style="marker:none"
         width="23.283"
         height="35.454"
         x="248.708"
         y="157.692"
         rx="11.642"
         ry="11.642" />
      <rect
         id="rect56"
         fill="#f6f5f4"
         ry="11.642"
         rx="11.642"
         y="156.104"
         x="248.708"
         height="35.454"
         width="23.283"
         style="marker:none" />
      <path
         id="path58"
         stroke-width=".265"
         stroke="#c0bfbc"
         fill="none"
         d="M260.615 170.656v-14.552" />
      <rect
         id="rect60"
         fill="#77767b"
         ry="2.646"
         rx="2.646"
         y="160.073"
         x="257.969"
         height="13.229"
         width="5.292"
         style="marker:none" />
      <circle
         id="circle62"
         fill-opacity=".102"
         fill="#c0bfbc"
         style="marker:none"
         cx="260.603"
         cy="162.003"
         r="1.455" />
    </g>
    <g
       id="g85"
       transform="scale(.95548) rotate(45 2986.865 2708.27)">
      <path
         id="path66"
         fill-rule="evenodd"
         fill-opacity=".102"
         style="marker:none"
         d="M69.202 198.092c-2.25 2.117-4.37 6.101-4.37 13.602l-.014 34.5-10.179 10.178a1.92 1.92 0 00-1.343.158l-12.125 6.088c-4.633-2.888-10.848-2.327-14.864 1.688-4.671 4.672-4.672 12.321 0 16.993 4.67 4.671 12.32 4.671 16.992 0l.043-.044.005.045 15.556-15.556.017.017 5.892-5.896-.004 7.829h.025v21.999l.035-.028v.06c0 6.606 5.41 12.016 12.016 12.016s12.014-5.409 12.014-12.015c0-5.68-3.998-10.471-9.317-11.705l-4.269-12.879a1.92 1.92 0 00-.838-1.06v-13.889l24.027-24.047c11.314-11.314 4.496-18.132 4.496-18.132l-28.523 28.523v-40.845s-2.72 0-5.272 2.4zm-39.36 69.75a6.978 6.978 0 019.922 0 6.979 6.979 0 010 9.921 6.979 6.979 0 01-9.922 0 6.978 6.978 0 010-9.921zm42.069 16.91a6.994 6.994 0 014.972-2.043 6.979 6.979 0 017.015 7.017 6.978 6.978 0 01-7.015 7.015 6.979 6.979 0 01-7.016-7.016c0-1.952.778-3.706 2.044-4.972z" />
      <path
         id="path68"
         fill-rule="evenodd"
         fill="#9a9996"
         d="M65.995 268.962h6v-72l-1.415-1.414s-6.585 5.061-6.585 17.414l.005 27.19.097 2.723 1.898 2.087z" />
      <use
         id="use70"
         height="100%"
         width="100%"
         transform="scale(-1 1) rotate(-45 -.464 413.359)"
         xlink:href="#f" />
      <g
         display="inline"
         id="f">
        <path
           id="path72"
           transform="scale(-1 1) rotate(-45 -31.3 415.202)"
           fill-rule="evenodd"
           fill="#fff"
           d="M55.975 290h9.667v-72S56 218 56 234z" />
        <g
           id="g80"
           transform="scale(-1 1) rotate(-45 -32.3 412.788)">
          <path
             id="path74"
             fill-rule="evenodd"
             fill="#ed333b"
             d="M54 312v-24c0-2 2-2 2-2h6.037s1.918-.136 2.444 1.45l4.397 13.27z" />
          <circle
             id="circle76"
             stroke-linejoin="round"
             stroke-linecap="round"
             stroke-width="5"
             stroke="#ed333b"
             fill="none"
             transform="scale(-1 1)"
             cx="-66.05"
             cy="312.033"
             r="9.516" />
          <circle
             id="circle78"
             stroke-linejoin="round"
             stroke-linecap="round"
             stroke-width="2"
             stroke="#e01b24"
             fill="none"
             transform="scale(-1 1)"
             r="7"
             cy="312"
             cx="-66" />
        </g>
      </g>
      <circle
         id="circle83"
         fill="#3d3846"
         r="2"
         cy="125.865"
         cx="-223.446"
         transform="scale(-1 1) rotate(-45)" />
    </g>
    <g
       id="g99"
       transform="matrix(0 2.88666 2.88666 0 2747.647 -1526.123)">
      <rect
         id="rect87"
         fill="#1a5fb4"
         ry=".468"
         rx=".468"
         y="198.702"
         x="173.567"
         height="2.117"
         width="3.44"
         style="marker:none" />
      <path
         id="path89"
         fill="#1a5fb4"
         d="M174.805 157.427h.963c.1 0 .164.083.18.184l1.058 6.482c.043.261-.208.478-.467.478h-2.505c-.259 0-.51-.217-.467-.478l1.058-6.482c.016-.1.08-.184.18-.184z"
         style="marker:none" />
      <path
         id="path91"
         d="M173.302 164.042h3.969v35.719h-3.969z"
         fill="#fff"
         style="marker:none" />
      <rect
         id="rect93"
         fill="#1a5fb4"
         ry=".468"
         rx=".397"
         y="155.84"
         x="174.89"
         height="2.381"
         width=".794"
         style="marker:none" />
      <rect
         id="rect95"
         fill="#fff"
         ry="0"
         rx="0"
         y="156.633"
         x="174.625"
         height="1.058"
         width="1.323"
         style="marker:none" />
      <path
         id="path97"
         d="M175.948 164.042h1.323v35.719h-1.323z"
         fill="#f6f5f4"
         style="marker:none" />
    </g>
    <g
       id="g199"
       transform="matrix(2.43265 0 0 2.43265 2602.769 -1538.917)">
      <rect
         id="rect101"
         ry="2.884"
         rx="2.884"
         y="84.667"
         x="47.625"
         height="58.208"
         width="95.25"
         style="marker:none" />
      <rect
         id="rect103"
         fill-opacity=".102"
         style="marker:none"
         width="95.25"
         height="58.208"
         x="47.625"
         y="145.256"
         rx="2.884"
         ry="2.884" />
      <rect
         id="rect105"
         fill="#deddda"
         ry="2.884"
         rx="2.884"
         y="144.198"
         x="47.625"
         height="58.208"
         width="95.25"
         style="marker:none" />
      <rect
         id="rect107"
         fill="#f6f5f4"
         style="marker:none"
         width="95.25"
         height="58.208"
         x="47.625"
         y="142.875"
         rx="2.884"
         ry="2.884" />
      <rect
         id="rect109"
         fill="#c0bfbc"
         ry="1.958"
         rx="1.958"
         y="148.167"
         x="52.917"
         height="29.104"
         width="84.667"
         style="marker:none" />
      <rect
         id="rect111"
         fill="#deddda"
         style="marker:none"
         width="84.667"
         height="29.104"
         x="52.917"
         y="148.696"
         rx="1.958"
         ry="1.958" />
      <rect
         id="rect113"
         style="marker:none"
         width="63.5"
         height="7.408"
         x="63.5"
         y="137.583"
         rx=".826"
         ry=".826" />
      <rect
         id="rect115"
         fill="#deddda"
         style="marker:none"
         width="26.458"
         height="15.875"
         x="82.021"
         y="179.917"
         rx="2.884"
         ry="2.884" />
      <rect
         id="rect117"
         fill="#62a0ea"
         style="marker:none"
         width="92.183"
         height="54.975"
         x="49.158"
         y="86.284"
         rx="1.574"
         ry="1.574" />
      <rect
         id="rect119"
         fill="#241f31"
         ry="1.013"
         rx="1.013"
         y="170.656"
         x="74.083"
         height="5.292"
         width="46.302"
         style="marker:none" />
      <rect
         id="rect121"
         fill="#241f31"
         style="marker:none"
         width="6.615"
         height="5.292"
         x="121.708"
         y="170.656"
         rx="1.013"
         ry="1.013" />
      <rect
         id="rect123"
         fill="#241f31"
         ry="1.013"
         rx="1.013"
         y="170.656"
         x="129.646"
         height="5.292"
         width="6.615"
         style="marker:none" />
      <rect
         id="rect125"
         fill="#241f31"
         style="marker:none"
         width="5.292"
         height="5.292"
         x="125.677"
         y="164.042"
         rx="1.013"
         ry="1.013" />
      <rect
         id="rect127"
         fill="#241f31"
         ry="1.013"
         rx="1.013"
         y="164.042"
         x="117.74"
         height="5.292"
         width="6.615"
         style="marker:none" />
      <rect
         id="rect129"
         fill="#241f31"
         style="marker:none"
         width="6.615"
         height="5.292"
         x="109.802"
         y="164.042"
         rx="1.013"
         ry="1.013" />
      <rect
         id="rect131"
         fill="#241f31"
         ry="1.013"
         rx="1.013"
         y="164.042"
         x="101.865"
         height="5.292"
         width="6.615"
         style="marker:none" />
      <rect
         id="rect133"
         fill="#241f31"
         style="marker:none"
         width="6.615"
         height="5.292"
         x="93.927"
         y="164.042"
         rx="1.013"
         ry="1.013" />
      <rect
         id="rect135"
         fill="#241f31"
         ry="1.013"
         rx="1.013"
         y="164.042"
         x="85.99"
         height="5.292"
         width="6.615"
         style="marker:none" />
      <rect
         id="rect137"
         fill="#241f31"
         style="marker:none"
         width="6.615"
         height="5.292"
         x="78.052"
         y="164.042"
         rx="1.013"
         ry="1.013" />
      <rect
         id="rect139"
         fill="#241f31"
         ry="1.013"
         rx="1.013"
         y="164.042"
         x="70.115"
         height="5.292"
         width="6.615"
         style="marker:none" />
      <rect
         id="rect141"
         fill="#241f31"
         style="marker:none"
         width="6.615"
         height="5.292"
         x="62.177"
         y="164.042"
         rx="1.013"
         ry="1.013" />
      <rect
         id="rect143"
         fill="#241f31"
         ry="1.013"
         rx="1.013"
         y="157.427"
         x="121.708"
         height="5.292"
         width="6.615"
         style="marker:none" />
      <rect
         id="rect145"
         fill="#241f31"
         style="marker:none"
         width="6.615"
         height="5.292"
         x="113.771"
         y="157.427"
         rx="1.013"
         ry="1.013" />
      <rect
         id="rect147"
         fill="#241f31"
         ry="1.013"
         rx="1.013"
         y="157.427"
         x="105.833"
         height="5.292"
         width="6.615"
         style="marker:none" />
      <rect
         id="rect149"
         fill="#241f31"
         style="marker:none"
         width="6.615"
         height="5.292"
         x="97.896"
         y="157.427"
         rx="1.013"
         ry="1.013" />
      <rect
         id="rect151"
         fill="#241f31"
         ry="1.013"
         rx="1.013"
         y="157.427"
         x="89.958"
         height="5.292"
         width="6.615"
         style="marker:none" />
      <rect
         id="rect153"
         fill="#241f31"
         style="marker:none"
         width="6.615"
         height="5.292"
         x="82.021"
         y="157.427"
         rx="1.013"
         ry="1.013" />
      <rect
         id="rect155"
         fill="#241f31"
         ry="1.013"
         rx="1.013"
         y="157.427"
         x="74.083"
         height="5.292"
         width="6.615"
         style="marker:none" />
      <rect
         id="rect157"
         fill="#241f31"
         style="marker:none"
         width="6.615"
         height="5.292"
         x="66.146"
         y="157.427"
         rx="1.013"
         ry="1.013" />
      <rect
         id="rect159"
         fill="#241f31"
         ry="1.013"
         rx="1.013"
         y="157.427"
         x="54.24"
         height="5.292"
         width="10.583"
         style="marker:none" />
      <rect
         id="rect161"
         fill="#241f31"
         style="marker:none"
         width="10.583"
         height="5.292"
         x="125.677"
         y="150.813"
         rx="1.013"
         ry="1.013" />
      <rect
         id="rect163"
         fill="#241f31"
         ry="1.013"
         rx="1.013"
         y="150.813"
         x="117.74"
         height="5.292"
         width="6.615"
         style="marker:none" />
      <rect
         id="rect165"
         fill="#241f31"
         style="marker:none"
         width="6.615"
         height="5.292"
         x="109.802"
         y="150.813"
         rx="1.013"
         ry="1.013" />
      <rect
         id="rect167"
         fill="#241f31"
         ry="1.013"
         rx="1.013"
         y="150.813"
         x="101.865"
         height="5.292"
         width="6.615"
         style="marker:none" />
      <rect
         id="rect169"
         fill="#241f31"
         style="marker:none"
         width="6.615"
         height="5.292"
         x="93.927"
         y="150.813"
         rx="1.013"
         ry="1.013" />
      <rect
         id="rect171"
         fill="#241f31"
         ry="1.013"
         rx="1.013"
         y="150.813"
         x="85.99"
         height="5.292"
         width="6.615"
         style="marker:none" />
      <rect
         id="rect173"
         fill="#241f31"
         style="marker:none"
         width="6.615"
         height="5.292"
         x="78.052"
         y="150.813"
         rx="1.013"
         ry="1.013" />
      <rect
         id="rect175"
         fill="#241f31"
         ry="1.013"
         rx="1.013"
         y="150.813"
         x="70.115"
         height="5.292"
         width="6.615"
         style="marker:none" />
      <rect
         id="rect177"
         fill="#241f31"
         style="marker:none"
         width="6.615"
         height="5.292"
         x="62.177"
         y="150.813"
         rx="1.013"
         ry="1.013" />
      <rect
         id="rect179"
         fill="#241f31"
         ry="1.013"
         rx="1.013"
         y="150.813"
         x="54.24"
         height="5.292"
         width="6.615"
         style="marker:none" />
      <rect
         id="rect181"
         fill="#241f31"
         ry="1.013"
         rx="1.013"
         y="164.042"
         x="54.24"
         height="5.292"
         width="6.615"
         style="marker:none" />
      <rect
         id="rect183"
         fill="#241f31"
         ry="1.013"
         rx="1.013"
         y="170.656"
         x="66.146"
         height="5.292"
         width="6.615"
         style="marker:none" />
      <rect
         id="rect185"
         fill="#241f31"
         style="marker:none"
         width="10.583"
         height="5.292"
         x="54.24"
         y="170.656"
         rx="1.013"
         ry="1.013" />
      <rect
         id="rect187"
         fill="#241f31"
         style="marker:none"
         width="6.615"
         height="5.292"
         x="129.646"
         y="157.427"
         rx="1.013"
         ry="1.013" />
      <rect
         id="rect189"
         fill="#241f31"
         ry="1.013"
         rx="1.013"
         y="157.427"
         x="132.292"
         height="11.906"
         width="3.969"
         style="marker:none" />
      <g
         id="g197"
         fill="#fff"
         stroke-width=".892">
        <path
           id="path191"
           opacity=".2"
           d="M112.497 102.02l12.984-12.984v12.985zM125.48 102.021l12.053 12.053H125.48z" />
        <path
           id="path193"
           opacity=".1"
           d="M101.339 138.053l12.053-12.062h-12.053z" />
        <path
           id="path195"
           opacity=".2"
           d="M125.445 113.937l-12.053 12.053h12.053z" />
      </g>
    </g>
    <g
       id="g239"
       transform="matrix(2.09898 0 0 2.09898 3311.213 -1533.99)">
      <g
         id="g213"
         transform="matrix(.5269 0 0 .5269 161.93 58.874)">
        <rect
           id="rect201"
           fill-opacity=".102"
           style="marker:none"
           width="88"
           height="104"
           x="-348"
           y="190.009"
           rx="8"
           ry="8" />
        <rect
           id="rect203"
           fill="#1e737e"
           ry="8"
           rx="8"
           y="188"
           x="-348"
           height="104"
           width="88"
           style="marker:none" />
        <rect
           id="rect205"
           fill="#f6f5f4"
           style="marker:none"
           width="88"
           height="102"
           x="-348"
           y="188"
           rx="8"
           ry="8" />
        <path
           id="path207"
           fill="#fff"
           style="marker:none"
           d="M-340.177 188h64.72a7.805 7.805 0 017.823 7.822l-.102 94.178h-72.441a7.805 7.805 0 01-7.823-7.822v-86.356a7.805 7.805 0 017.823-7.822z" />
        <rect
           id="rect209"
           fill="#1e737e"
           style="marker:none"
           width="88"
           height="100"
           x="-348"
           y="180"
           rx="8"
           ry="8" />
        <rect
           id="rect211"
           fill="#27a0a4"
           ry="8"
           rx="8"
           y="180"
           x="-348"
           height="98"
           width="88"
           style="marker:none" />
      </g>
      <g
         id="g225"
         stroke-width="2"
         stroke="#241f31"
         fill="#3d3846"
         transform="matrix(.5269 0 0 .5269 -31.97 60.455)">
        <circle
           id="circle215"
           r="3"
           cy="187"
           cx="32" />
        <circle
           id="circle217"
           cx="96"
           cy="187"
           r="3" />
        <circle
           id="circle219"
           r="3"
           cy="187"
           cx="48" />
        <circle
           id="circle221"
           r="3"
           cy="187"
           cx="64" />
        <circle
           id="circle223"
           cx="80"
           cy="187"
           r="3" />
      </g>
      <path
         id="path227"
         fill="#deddda"
         overflow="visible"
         font-family="sans-serif"
         font-weight="400"
         color="#000"
         style="line-height:normal;font-variant-ligatures:normal;font-variant-position:normal;font-variant-caps:normal;font-variant-numeric:normal;font-variant-alternates:normal;font-feature-settings:normal;text-indent:0;text-align:start;text-decoration-line:none;text-decoration-style:solid;text-decoration-color:#000;text-transform:none;text-orientation:mixed;white-space:normal;shape-padding:0;isolation:auto;mix-blend-mode:normal;solid-color:#000;solid-opacity:1"
         d="M-15.125 149.486a1.054 1.054 0 00-1.037 1.069v8.43a1.054 1.054 0 102.107 0v-8.43a1.054 1.054 0 00-1.07-1.069zm8.432 0a1.054 1.054 0 00-1.04 1.069v8.43a1.054 1.054 0 102.108 0v-8.43a1.054 1.054 0 00-1.068-1.069zm8.43 0a1.054 1.054 0 00-1.038 1.069v8.43a1.054 1.054 0 102.108 0v-8.43a1.054 1.054 0 00-1.07-1.069zm8.429 0a1.054 1.054 0 00-1.037 1.069v8.43a1.054 1.054 0 102.107 0v-8.43a1.054 1.054 0 00-1.07-1.069zm8.432 0a1.054 1.054 0 00-1.04 1.069v8.43a1.054 1.054 0 102.108 0v-8.43a1.054 1.054 0 00-1.068-1.069z" />
      <circle
         id="circle229"
         fill="#fff"
         style="marker:none"
         cx="-15.081"
         cy="151.642"
         r="1.058" />
      <circle
         id="circle231"
         fill="#fff"
         r="1.058"
         cy="151.642"
         cx="-6.639"
         style="marker:none" />
      <circle
         id="circle233"
         fill="#fff"
         style="marker:none"
         cx="1.757"
         cy="151.642"
         r="1.058" />
      <circle
         id="circle235"
         fill="#fff"
         r="1.058"
         cy="151.642"
         cx="10.199"
         style="marker:none" />
      <circle
         id="circle237"
         fill="#fff"
         style="marker:none"
         cx="18.665"
         cy="151.642"
         r="1.058" />
    </g>
    <g
       id="g257"
       transform="matrix(.93209 0 0 .93209 -1000.99 4648.193)">
      <path
         id="path241"
         transform="translate(3662.15 -6599.407) scale(1.38952)"
         d="M12 232.87h104v76H12z"
         fill="url(#g)" />
      <path
         id="path243"
         d="M3678.824-6343.47h144.51v93.972h-144.51z"
         fill="#ac815b" />
      <path
         id="path245"
         d="M3678.824-6249.498h144.51v2.779h-144.51z"
         fill="#fff"
         opacity=".211"
         style="marker:none" />
      <path
         id="path247"
         fill="#e7d5c7"
         d="M3823.141-6248.491v-95.055l35.515 20.505v92.076z" />
      <path
         id="path249"
         d="M3678.868-6342.373h144.07v53.989h-144.07z"
         fill="#7d5738"
         style="marker:none" />
      <path
         id="path251"
         fill="#e7d5c7"
         d="M3678.859-6248.491v-95.055l-35.515 20.505v92.076z" />
      <rect
         id="rect253"
         fill="#e7d5c7"
         style="marker:none"
         width="144.375"
         height="1.25"
         x="3678.625"
         y="-6343.605"
         rx="0"
         ry="0" />
      <path
         id="path255"
         fill="#e7d5c7"
         style="marker:none"
         d="M3679-6249.48h145v39h-145z" />
    </g>
    <path
       id="path259"
       d="M2210.672-1079.515h130.66v85.432h-130.66z"
       fill-opacity=".102"
       style="marker:none" />
    <path
       id="path261"
       transform="translate(2195.596 -1360.94) scale(1.25635)"
       d="M12 212h104v76H12z"
       fill="url(#h)" />
    <path
       id="path263"
       transform="translate(2195.596 -1360.94) scale(1.25635)"
       d="M12 184h104v68H12z"
       fill="url(#i)" />
    <path
       id="path265"
       d="M2210.672-1044.339h130.66v2.513h-130.66z"
       opacity=".05"
       style="marker:none" />
    <path
       id="path267"
       d="M2213.184-1129.77h2.513v85.431h-2.513zM2336.307-1129.77h2.513v85.431h-2.513z"
       fill="#fff"
       opacity=".2"
       style="marker:none" />
    <path
       id="path269"
       d="M2348.87-1079.515h130.66v85.432h-130.66z"
       fill-opacity=".102"
       style="marker:none" />
    <path
       id="path271"
       transform="translate(2333.794 -1360.94) scale(1.25635)"
       d="M12 212h104v76H12z"
       fill="url(#j)" />
    <path
       id="path273"
       transform="translate(2333.794 -1360.94) scale(1.25635)"
       d="M12 184h104v68H12z"
       fill="url(#k)" />
    <path
       id="path275"
       d="M2348.87-1044.339h130.66v2.513h-130.66z"
       opacity=".05"
       style="marker:none" />
    <path
       id="path277"
       d="M2351.383-1129.77h2.513v85.431h-2.513zM2474.505-1129.77h2.513v85.431h-2.513z"
       fill="#fff"
       opacity=".2"
       style="marker:none" />
    <path
       id="path279"
       fill-opacity=".102"
       d="M2257.81-1130.138h83.672v85.76h-77.875l-5.796-4.96z"
       style="marker:none" />
    <path
       id="path281"
       d="M2341.332-1094.593v8.206h-130.66v-8.206zM2421.596-1085.003v8.205h-85.316v-8.205z"
       fill="#9a9996"
       style="marker:none" />
    <path
       id="path283"
       d="M2271.9-1044.338h8.205v45.129h-8.205z"
       fill="#77767b"
       style="marker:none" />
    <path
       id="path285"
       fill-opacity=".102"
       d="M2349.05-1130.138h40.555l24.593 26.797v58.964h-65.149z"
       style="marker:none" />
    <path
       id="path287"
       d="M2271.9-1129.653h8.205v85.315h-8.205z"
       fill="#9a9996"
       style="marker:none" />
    <g
       id="g297">
      <path
         id="path289"
         transform="translate(2242.906 -1411.193) scale(1.25635)"
         d="M12 212h104v76H12z"
         fill="url(#l)" />
      <path
         id="path291"
         transform="translate(2242.906 -1411.193) scale(1.25635)"
         d="M12 184h104v68H12z"
         fill="url(#m)" />
      <path
         id="path293"
         d="M2257.982-1094.593h130.66v2.513h-130.66z"
         opacity=".05"
         style="marker:none" />
      <path
         id="path295"
         d="M2260.495-1180.025h2.512v85.432h-2.512zM2383.617-1180.025h2.513v85.432h-2.513z"
         fill="#fff"
         opacity=".2"
         style="marker:none" />
    </g>
    <path
       id="path299"
       d="M2403.555-1044.455h8.205v45.13h-8.205z"
       fill="#77767b"
       style="marker:none" />
    <path
       id="path301"
       d="M2403.555-1129.77h8.205v85.315h-8.205z"
       fill="#9a9996"
       style="marker:none" />
    <path
       id="path303"
       d="M2430.86-1084.892h48.954v7.797h-48.955z"
       opacity=".136"
       style="marker:none" />
    <path
       id="path305"
       d="M2479.472-1085.481v8.205L2430.116-1093v-8.205zM2388.644-1144.845v8.205h-130.66v-8.205z"
       fill="#9a9996"
       style="marker:none" />
    <path
       id="path307"
       d="M2319.209-1094.593h8.205v45.13h-8.205z"
       fill="#77767b"
       style="marker:none" />
    <path
       id="path309"
       d="M2319.209-1179.908h8.205v85.315h-8.205z"
       fill="#9a9996"
       style="marker:none" />
  </g>
</svg>
