<?xml version="1.0" encoding="UTF-8"?>
<svg height="128px" viewBox="0 0 128 128" width="128px" xmlns="http://www.w3.org/2000/svg" xmlns:xlink="http://www.w3.org/1999/xlink">
    <clipPath id="a">
        <path d="m 8 3 h 113 v 120 h -113 z m 0 0"/>
    </clipPath>
    <clipPath id="b">
        <path d="m 110.710938 98.835938 l -37.367188 21.597656 c -5.789062 3.34375 -12.917969 3.355468 -18.714844 0.027344 l -36.867187 -21.167969 c -5.796875 -3.328125 -9.386719 -9.488281 -9.414063 -16.175781 l -0.183594 -39.476563 c -0.03125 -6.683594 3.5 -12.878906 9.269532 -16.257813 l 36.683594 -21.488281 c 5.765624 -3.378906 12.894531 -3.429687 18.710937 -0.136719 l 37.558594 21.277344 c 5.808593 3.289063 9.414062 9.441406 9.445312 16.121094 l 0.179688 39.476562 c 0.03125 6.679688 -3.519531 12.863282 -9.300781 16.203126 z m 0 0"/>
    </clipPath>
    <linearGradient id="c" gradientTransform="matrix(0.409876 -0.0955931 0.0955931 0.409876 54.861046 56.454544)" gradientUnits="userSpaceOnUse" x1="-16.590025" x2="-0.6957" y1="-104.734734" y2="-47.353065">
        <stop offset="0" stop-color="#f67e7a"/>
        <stop offset="1" stop-color="#f5322c"/>
    </linearGradient>
    <clipPath id="d">
        <path d="m 31 3 h 65 v 43 h -65 z m 0 0"/>
    </clipPath>
    <clipPath id="e">
        <path d="m 110.710938 98.835938 l -37.367188 21.597656 c -5.789062 3.34375 -12.917969 3.355468 -18.714844 0.027344 l -36.867187 -21.167969 c -5.796875 -3.328125 -9.386719 -9.488281 -9.414063 -16.175781 l -0.183594 -39.476563 c -0.03125 -6.683594 3.5 -12.878906 9.269532 -16.257813 l 36.683594 -21.488281 c 5.765624 -3.378906 12.894531 -3.429687 18.710937 -0.136719 l 37.558594 21.277344 c 5.808593 3.289063 9.414062 9.441406 9.445312 16.121094 l 0.179688 39.476562 c 0.03125 6.679688 -3.519531 12.863282 -9.300781 16.203126 z m 0 0"/>
    </clipPath>
    <linearGradient id="f" gradientUnits="userSpaceOnUse" x1="63.820607" x2="77.609189" y1="16.699711" y2="60.893895">
        <stop offset="0" stop-color="#f87171"/>
        <stop offset="1" stop-color="#f87171" stop-opacity="0"/>
    </linearGradient>
    <clipPath id="g">
        <path d="m 31 44 h 65 v 51 h -65 z m 0 0"/>
    </clipPath>
    <clipPath id="h">
        <path d="m 110.710938 98.835938 l -37.367188 21.597656 c -5.789062 3.34375 -12.917969 3.355468 -18.714844 0.027344 l -36.867187 -21.167969 c -5.796875 -3.328125 -9.386719 -9.488281 -9.414063 -16.175781 l -0.183594 -39.476563 c -0.03125 -6.683594 3.5 -12.878906 9.269532 -16.257813 l 36.683594 -21.488281 c 5.765624 -3.378906 12.894531 -3.429687 18.710937 -0.136719 l 37.558594 21.277344 c 5.808593 3.289063 9.414062 9.441406 9.445312 16.121094 l 0.179688 39.476562 c 0.03125 6.679688 -3.519531 12.863282 -9.300781 16.203126 z m 0 0"/>
    </clipPath>
    <clipPath id="i">
        <path d="m 8 45 h 56 v 50 h -56 z m 0 0"/>
    </clipPath>
    <clipPath id="j">
        <path d="m 110.710938 98.835938 l -37.367188 21.597656 c -5.789062 3.34375 -12.917969 3.355468 -18.714844 0.027344 l -36.867187 -21.167969 c -5.796875 -3.328125 -9.386719 -9.488281 -9.414063 -16.175781 l -0.183594 -39.476563 c -0.03125 -6.683594 3.5 -12.878906 9.269532 -16.257813 l 36.683594 -21.488281 c 5.765624 -3.378906 12.894531 -3.429687 18.710937 -0.136719 l 37.558594 21.277344 c 5.808593 3.289063 9.414062 9.441406 9.445312 16.121094 l 0.179688 39.476562 c 0.03125 6.679688 -3.519531 12.863282 -9.300781 16.203126 z m 0 0"/>
    </clipPath>
    <linearGradient id="k" gradientUnits="userSpaceOnUse" x1="20.544275" x2="71.245229" y1="82.814198" y2="65.666859">
        <stop offset="0" stop-color="#e01b76"/>
        <stop offset="1" stop-color="#e01b76" stop-opacity="0"/>
    </linearGradient>
    <clipPath id="l">
        <path d="m 63 44 h 58 v 51 h -58 z m 0 0"/>
    </clipPath>
    <clipPath id="m">
        <path d="m 110.710938 98.835938 l -37.367188 21.597656 c -5.789062 3.34375 -12.917969 3.355468 -18.714844 0.027344 l -36.867187 -21.167969 c -5.796875 -3.328125 -9.386719 -9.488281 -9.414063 -16.175781 l -0.183594 -39.476563 c -0.03125 -6.683594 3.5 -12.878906 9.269532 -16.257813 l 36.683594 -21.488281 c 5.765624 -3.378906 12.894531 -3.429687 18.710937 -0.136719 l 37.558594 21.277344 c 5.808593 3.289063 9.414062 9.441406 9.445312 16.121094 l 0.179688 39.476562 c 0.03125 6.679688 -3.519531 12.863282 -9.300781 16.203126 z m 0 0"/>
    </clipPath>
    <linearGradient id="n" gradientUnits="userSpaceOnUse" x1="111.37354" x2="20.544275" y1="82.10709" y2="81.399983">
        <stop offset="0" stop-color="#c01c6d"/>
        <stop offset="1" stop-color="#c01c6d" stop-opacity="0"/>
    </linearGradient>
    <clipPath id="o">
        <path d="m 95 35 h 26 v 53 h -26 z m 0 0"/>
    </clipPath>
    <clipPath id="p">
        <path d="m 110.710938 98.835938 l -37.367188 21.597656 c -5.789062 3.34375 -12.917969 3.355468 -18.714844 0.027344 l -36.867187 -21.167969 c -5.796875 -3.328125 -9.386719 -9.488281 -9.414063 -16.175781 l -0.183594 -39.476563 c -0.03125 -6.683594 3.5 -12.878906 9.269532 -16.257813 l 36.683594 -21.488281 c 5.765624 -3.378906 12.894531 -3.429687 18.710937 -0.136719 l 37.558594 21.277344 c 5.808593 3.289063 9.414062 9.441406 9.445312 16.121094 l 0.179688 39.476562 c 0.03125 6.679688 -3.519531 12.863282 -9.300781 16.203126 z m 0 0"/>
    </clipPath>
    <linearGradient id="q" gradientUnits="userSpaceOnUse" x1="89.744657" x2="135.602201" y1="79.632222" y2="52.394627">
        <stop offset="0" stop-color="#a51d6f"/>
        <stop offset="1" stop-color="#a51d6f" stop-opacity="0"/>
    </linearGradient>
    <clipPath id="r">
        <path d="m 63 87 h 58 v 36 h -58 z m 0 0"/>
    </clipPath>
    <clipPath id="s">
        <path d="m 110.710938 98.835938 l -37.367188 21.597656 c -5.789062 3.34375 -12.917969 3.355468 -18.714844 0.027344 l -36.867187 -21.167969 c -5.796875 -3.328125 -9.386719 -9.488281 -9.414063 -16.175781 l -0.183594 -39.476563 c -0.03125 -6.683594 3.5 -12.878906 9.269532 -16.257813 l 36.683594 -21.488281 c 5.765624 -3.378906 12.894531 -3.429687 18.710937 -0.136719 l 37.558594 21.277344 c 5.808593 3.289063 9.414062 9.441406 9.445312 16.121094 l 0.179688 39.476562 c 0.03125 6.679688 -3.519531 12.863282 -9.300781 16.203126 z m 0 0"/>
    </clipPath>
    <linearGradient id="t" gradientUnits="userSpaceOnUse" x1="92.027105" x2="75.664647" y1="109.635456" y2="65.666859">
        <stop offset="0" stop-color="#4e1058"/>
        <stop offset="1" stop-color="#4e1058" stop-opacity="0"/>
    </linearGradient>
    <clipPath id="u">
        <path d="m 8 88 h 56 v 35 h -56 z m 0 0"/>
    </clipPath>
    <clipPath id="v">
        <path d="m 110.710938 98.835938 l -37.367188 21.597656 c -5.789062 3.34375 -12.917969 3.355468 -18.714844 0.027344 l -36.867187 -21.167969 c -5.796875 -3.328125 -9.386719 -9.488281 -9.414063 -16.175781 l -0.183594 -39.476563 c -0.03125 -6.683594 3.5 -12.878906 9.269532 -16.257813 l 36.683594 -21.488281 c 5.765624 -3.378906 12.894531 -3.429687 18.710937 -0.136719 l 37.558594 21.277344 c 5.808593 3.289063 9.414062 9.441406 9.445312 16.121094 l 0.179688 39.476562 c 0.03125 6.679688 -3.519531 12.863282 -9.300781 16.203126 z m 0 0"/>
    </clipPath>
    <linearGradient id="w" gradientUnits="userSpaceOnUse" x1="39.664624" x2="74.073659" y1="111.960224" y2="87.173817">
        <stop offset="0" stop-color="#aa14a2"/>
        <stop offset="1" stop-color="#aa14a2" stop-opacity="0"/>
    </linearGradient>
    <clipPath id="x">
        <path d="m 8 32 h 24 v 57 h -24 z m 0 0"/>
    </clipPath>
    <clipPath id="y">
        <path d="m 110.710938 98.835938 l -37.367188 21.597656 c -5.789062 3.34375 -12.917969 3.355468 -18.714844 0.027344 l -36.867187 -21.167969 c -5.796875 -3.328125 -9.386719 -9.488281 -9.414063 -16.175781 l -0.183594 -39.476563 c -0.03125 -6.683594 3.5 -12.878906 9.269532 -16.257813 l 36.683594 -21.488281 c 5.765624 -3.378906 12.894531 -3.429687 18.710937 -0.136719 l 37.558594 21.277344 c 5.808593 3.289063 9.414062 9.441406 9.445312 16.121094 l 0.179688 39.476562 c 0.03125 6.679688 -3.519531 12.863282 -9.300781 16.203126 z m 0 0"/>
    </clipPath>
    <linearGradient id="z" gradientUnits="userSpaceOnUse" x1="12.544534" x2="53.921113" y1="57.358357" y2="60.893895">
        <stop offset="0" stop-color="#ed3391"/>
        <stop offset="1" stop-color="#ed3391" stop-opacity="0"/>
    </linearGradient>
    <clipPath id="A">
        <path d="m 60 3 h 61 v 42 h -61 z m 0 0"/>
    </clipPath>
    <clipPath id="B">
        <path d="m 110.710938 98.835938 l -37.367188 21.597656 c -5.789062 3.34375 -12.917969 3.355468 -18.714844 0.027344 l -36.867187 -21.167969 c -5.796875 -3.328125 -9.386719 -9.488281 -9.414063 -16.175781 l -0.183594 -39.476563 c -0.03125 -6.683594 3.5 -12.878906 9.269532 -16.257813 l 36.683594 -21.488281 c 5.765624 -3.378906 12.894531 -3.429687 18.710937 -0.136719 l 37.558594 21.277344 c 5.808593 3.289063 9.414062 9.441406 9.445312 16.121094 l 0.179688 39.476562 c 0.03125 6.679688 -3.519531 12.863282 -9.300781 16.203126 z m 0 0"/>
    </clipPath>
    <linearGradient id="C" gradientUnits="userSpaceOnUse" x1="94.049268" x2="104.049268" y1="39.112141" y2="21.112141">
        <stop offset="0" stop-color="#f54054"/>
        <stop offset="0.333333" stop-color="#f54054" stop-opacity="0.411765"/>
        <stop offset="1" stop-color="#fa8988"/>
    </linearGradient>
    <clipPath id="D">
        <path d="m 55 87 h 19 v 16 h -19 z m 0 0"/>
    </clipPath>
    <clipPath id="E">
        <path d="m 110.710938 98.835938 l -37.367188 21.597656 c -5.789062 3.34375 -12.917969 3.355468 -18.714844 0.027344 l -36.867187 -21.167969 c -5.796875 -3.328125 -9.386719 -9.488281 -9.414063 -16.175781 l -0.183594 -39.476563 c -0.03125 -6.683594 3.5 -12.878906 9.269532 -16.257813 l 36.683594 -21.488281 c 5.765624 -3.378906 12.894531 -3.429687 18.710937 -0.136719 l 37.558594 21.277344 c 5.808593 3.289063 9.414062 9.441406 9.445312 16.121094 l 0.179688 39.476562 c 0.03125 6.679688 -3.519531 12.863282 -9.300781 16.203126 z m 0 0"/>
    </clipPath>
    <radialGradient id="F" cx="64.566757" cy="263.572876" gradientTransform="matrix(0 2.037129 -1.537457 0.00000145 469.848145 -40.320084)" gradientUnits="userSpaceOnUse" r="8.894679">
        <stop offset="0" stop-color="#d12c6c"/>
        <stop offset="1" stop-color="#cf275e"/>
    </radialGradient>
    <clipPath id="G">
        <path d="m 115 82 h 6 v 11 h -6 z m 0 0"/>
    </clipPath>
    <clipPath id="H">
        <path d="m 110.710938 98.835938 l -37.367188 21.597656 c -5.789062 3.34375 -12.917969 3.355468 -18.714844 0.027344 l -36.867187 -21.167969 c -5.796875 -3.328125 -9.386719 -9.488281 -9.414063 -16.175781 l -0.183594 -39.476563 c -0.03125 -6.683594 3.5 -12.878906 9.269532 -16.257813 l 36.683594 -21.488281 c 5.765624 -3.378906 12.894531 -3.429687 18.710937 -0.136719 l 37.558594 21.277344 c 5.808593 3.289063 9.414062 9.441406 9.445312 16.121094 l 0.179688 39.476562 c 0.03125 6.679688 -3.519531 12.863282 -9.300781 16.203126 z m 0 0"/>
    </clipPath>
    <linearGradient id="I" gradientUnits="userSpaceOnUse" x1="120.471509" x2="115.24294" y1="87.173817" y2="84.15511">
        <stop offset="0" stop-color="#e73f4b"/>
        <stop offset="1" stop-color="#c11c6b"/>
    </linearGradient>
    <clipPath id="J">
        <path d="m 86 38 h 18 v 16 h -18 z m 0 0"/>
    </clipPath>
    <clipPath id="K">
        <path d="m 110.710938 98.835938 l -37.367188 21.597656 c -5.789062 3.34375 -12.917969 3.355468 -18.714844 0.027344 l -36.867187 -21.167969 c -5.796875 -3.328125 -9.386719 -9.488281 -9.414063 -16.175781 l -0.183594 -39.476563 c -0.03125 -6.683594 3.5 -12.878906 9.269532 -16.257813 l 36.683594 -21.488281 c 5.765624 -3.378906 12.894531 -3.429687 18.710937 -0.136719 l 37.558594 21.277344 c 5.808593 3.289063 9.414062 9.441406 9.445312 16.121094 l 0.179688 39.476562 c 0.03125 6.679688 -3.519531 12.863282 -9.300781 16.203126 z m 0 0"/>
    </clipPath>
    <linearGradient id="L" gradientUnits="userSpaceOnUse" x1="92.049268" x2="98.049268" y1="51.112141" y2="45.112141">
        <stop offset="0" stop-color="#ed4883"/>
        <stop offset="1" stop-color="#f75d62"/>
    </linearGradient>
    <clipPath id="M">
        <path d="m 24 39 h 17 v 15 h -17 z m 0 0"/>
    </clipPath>
    <clipPath id="N">
        <path d="m 110.710938 98.835938 l -37.367188 21.597656 c -5.789062 3.34375 -12.917969 3.355468 -18.714844 0.027344 l -36.867187 -21.167969 c -5.796875 -3.328125 -9.386719 -9.488281 -9.414063 -16.175781 l -0.183594 -39.476563 c -0.03125 -6.683594 3.5 -12.878906 9.269532 -16.257813 l 36.683594 -21.488281 c 5.765624 -3.378906 12.894531 -3.429687 18.710937 -0.136719 l 37.558594 21.277344 c 5.808593 3.289063 9.414062 9.441406 9.445312 16.121094 l 0.179688 39.476562 c 0.03125 6.679688 -3.519531 12.863282 -9.300781 16.203126 z m 0 0"/>
    </clipPath>
    <linearGradient id="O" gradientUnits="userSpaceOnUse" x1="38.049268" x2="32.049268" y1="41.112141" y2="53.112141">
        <stop offset="0" stop-color="#e09392"/>
        <stop offset="1" stop-color="#ee3286"/>
    </linearGradient>
    <clipPath id="P">
        <path d="m 57 3 h 14 v 5 h -14 z m 0 0"/>
    </clipPath>
    <clipPath id="Q">
        <path d="m 110.710938 98.835938 l -37.367188 21.597656 c -5.789062 3.34375 -12.917969 3.355468 -18.714844 0.027344 l -36.867187 -21.167969 c -5.796875 -3.328125 -9.386719 -9.488281 -9.414063 -16.175781 l -0.183594 -39.476563 c -0.03125 -6.683594 3.5 -12.878906 9.269532 -16.257813 l 36.683594 -21.488281 c 5.765624 -3.378906 12.894531 -3.429687 18.710937 -0.136719 l 37.558594 21.277344 c 5.808593 3.289063 9.414062 9.441406 9.445312 16.121094 l 0.179688 39.476562 c 0.03125 6.679688 -3.519531 12.863282 -9.300781 16.203126 z m 0 0"/>
    </clipPath>
    <clipPath id="R">
        <path d="m 8 29 h 8 v 11 h -8 z m 0 0"/>
    </clipPath>
    <clipPath id="S">
        <path d="m 110.710938 98.835938 l -37.367188 21.597656 c -5.789062 3.34375 -12.917969 3.355468 -18.714844 0.027344 l -36.867187 -21.167969 c -5.796875 -3.328125 -9.386719 -9.488281 -9.414063 -16.175781 l -0.183594 -39.476563 c -0.03125 -6.683594 3.5 -12.878906 9.269532 -16.257813 l 36.683594 -21.488281 c 5.765624 -3.378906 12.894531 -3.429687 18.710937 -0.136719 l 37.558594 21.277344 c 5.808593 3.289063 9.414062 9.441406 9.445312 16.121094 l 0.179688 39.476562 c 0.03125 6.679688 -3.519531 12.863282 -9.300781 16.203126 z m 0 0"/>
    </clipPath>
    <clipPath id="T">
        <path d="m 114 31 h 7 v 11 h -7 z m 0 0"/>
    </clipPath>
    <clipPath id="U">
        <path d="m 110.710938 98.835938 l -37.367188 21.597656 c -5.789062 3.34375 -12.917969 3.355468 -18.714844 0.027344 l -36.867187 -21.167969 c -5.796875 -3.328125 -9.386719 -9.488281 -9.414063 -16.175781 l -0.183594 -39.476563 c -0.03125 -6.683594 3.5 -12.878906 9.269532 -16.257813 l 36.683594 -21.488281 c 5.765624 -3.378906 12.894531 -3.429687 18.710937 -0.136719 l 37.558594 21.277344 c 5.808593 3.289063 9.414062 9.441406 9.445312 16.121094 l 0.179688 39.476562 c 0.03125 6.679688 -3.519531 12.863282 -9.300781 16.203126 z m 0 0"/>
    </clipPath>
    <linearGradient id="V" gradientUnits="userSpaceOnUse" x1="115.793561" x2="118.444608" y1="37.550068" y2="35.495747">
        <stop offset="0" stop-color="#f75753"/>
        <stop offset="1" stop-color="#fa9292"/>
    </linearGradient>
    <clipPath id="W">
        <path d="m 8 84 h 6 v 11 h -6 z m 0 0"/>
    </clipPath>
    <clipPath id="X">
        <path d="m 110.710938 98.835938 l -37.367188 21.597656 c -5.789062 3.34375 -12.917969 3.355468 -18.714844 0.027344 l -36.867187 -21.167969 c -5.796875 -3.328125 -9.386719 -9.488281 -9.414063 -16.175781 l -0.183594 -39.476563 c -0.03125 -6.683594 3.5 -12.878906 9.269532 -16.257813 l 36.683594 -21.488281 c 5.765624 -3.378906 12.894531 -3.429687 18.710937 -0.136719 l 37.558594 21.277344 c 5.808593 3.289063 9.414062 9.441406 9.445312 16.121094 l 0.179688 39.476562 c 0.03125 6.679688 -3.519531 12.863282 -9.300781 16.203126 z m 0 0"/>
    </clipPath>
    <clipPath id="Y">
        <path d="m 58 119 h 13 v 4 h -13 z m 0 0"/>
    </clipPath>
    <clipPath id="Z">
        <path d="m 110.710938 98.835938 l -37.367188 21.597656 c -5.789062 3.34375 -12.917969 3.355468 -18.714844 0.027344 l -36.867187 -21.167969 c -5.796875 -3.328125 -9.386719 -9.488281 -9.414063 -16.175781 l -0.183594 -39.476563 c -0.03125 -6.683594 3.5 -12.878906 9.269532 -16.257813 l 36.683594 -21.488281 c 5.765624 -3.378906 12.894531 -3.429687 18.710937 -0.136719 l 37.558594 21.277344 c 5.808593 3.289063 9.414062 9.441406 9.445312 16.121094 l 0.179688 39.476562 c 0.03125 6.679688 -3.519531 12.863282 -9.300781 16.203126 z m 0 0"/>
    </clipPath>
    <g clip-path="url(#a)">
        <g clip-path="url(#b)">
            <path d="m 120.0625 93.433594 l -56.070312 32.40625 l -55.597657 -31.921875 l -0.277343 -61.078125 l 55.316406 -32.402344 l 56.347656 31.917969 z m 0 0" fill="url(#c)"/>
        </g>
    </g>
    <g clip-path="url(#d)">
        <g clip-path="url(#e)">
            <path d="m 64.050781 3.609375 l -32.25 41.628906 l 64 -0.25 z m 0 0" fill="url(#f)"/>
        </g>
    </g>
    <g clip-path="url(#g)">
        <g clip-path="url(#h)">
            <path d="m 31.800781 45.238281 l 64 -0.25 l -32 50 z m 0 0" fill="#ed3376"/>
        </g>
    </g>
    <g clip-path="url(#i)">
        <g clip-path="url(#j)">
            <path d="m 63.800781 94.988281 l -32 -49.75 l -23.429687 43.617188 z m 0 0" fill="url(#k)"/>
        </g>
    </g>
    <g clip-path="url(#l)">
        <g clip-path="url(#m)">
            <path d="m 95.800781 44.988281 l 24.671875 42.1875 l -56.671875 7.8125 z m 0 0" fill="url(#n)"/>
        </g>
    </g>
    <g clip-path="url(#o)">
        <g clip-path="url(#p)">
            <path d="m 95.800781 44.988281 l 23.996094 -9.492187 l 0.675781 51.679687 z m 0 0" fill="url(#q)"/>
        </g>
    </g>
    <g clip-path="url(#r)">
        <g clip-path="url(#s)">
            <path d="m 63.800781 94.988281 l 0.191407 30.851563 l 56.070312 -32.40625 l 0.410156 -6.257813 z m 0 0" fill="url(#t)"/>
        </g>
    </g>
    <g clip-path="url(#u)">
        <g clip-path="url(#v)">
            <path d="m 63.800781 94.988281 l 0.191407 30.851563 l -63.9414068 -36.476563 l 8.3203128 -0.507812 z m 0 0" fill="url(#w)"/>
        </g>
    </g>
    <g clip-path="url(#x)">
        <g clip-path="url(#y)">
            <path d="m 31.800781 45.238281 l -23.429687 43.617188 l -0.253906 -56.015625 z m 0 0" fill="url(#z)"/>
        </g>
    </g>
    <g clip-path="url(#A)">
        <g clip-path="url(#B)">
            <path d="m 95.800781 44.988281 l -34.984375 -45.875 l 63.636719 34.378907 z m 0 0" fill="url(#C)"/>
        </g>
    </g>
    <g clip-path="url(#D)">
        <g clip-path="url(#E)">
            <path d="m 58.53125 87.175781 c 0.988281 2.632813 -0.125 5.425781 -3.3125 6.777344 c 7.601562 0.9375 7.035156 5.511719 8.390625 8.832031 c 0.9375 -5.285156 3.640625 -8.308594 9.398437 -9.09375 c -4.601562 0.054688 -5.757812 -2.011718 -4.894531 -5.808594 c -3.023437 2.949219 -6.6875 2.125 -9.582031 -0.707031 z m 0 0" fill="url(#F)"/>
        </g>
    </g>
    <g clip-path="url(#G)">
        <g clip-path="url(#H)">
            <path d="m 117.753906 82.527344 c 0.5625 1.5 -0.699218 4.601562 -2.511718 5.367187 c 4.324218 0.535157 2.828124 3.105469 1.960937 4.660157 c 3.003906 -1.324219 4.921875 -5.550782 8.195313 -6 c -2.617188 0.035156 -5.46875 -1.300782 -4.980469 -3.460938 c -0.511719 1.605469 -1.015625 1.042969 -2.664063 -0.566406 z m 0 0" fill="url(#I)"/>
        </g>
    </g>
    <g clip-path="url(#J)">
        <g clip-path="url(#K)">
            <path d="m 91.089844 38.847656 c 1.070312 2.851563 1.113281 6.152344 -4.722656 6.171875 c 5.078124 0 6.011718 5.308594 4.4375 7.773438 c 2.621093 -2.089844 5.773437 -3.765625 9.75 0.324219 c -2.25 -3.84375 -2.347657 -9.082032 3.410156 -11.359376 c -7.285156 2.882813 -9.742188 0.15625 -12.875 -2.910156 z m 0 0" fill="url(#L)"/>
        </g>
    </g>
    <g clip-path="url(#M)">
        <g clip-path="url(#N)">
            <path d="m 36.613281 39.023438 c -1.816406 3.886718 0.34375 6.195312 3.390625 6.183593 c -4.65625 0.015625 -5.164062 4.523438 -3.253906 7.492188 c -2.03125 -2.378907 -7.265625 -3.152344 -9.273438 0.585937 c 2.550782 -4.746094 1.160157 -8.503906 -3.285156 -12.03125 c 4.738282 2.480469 9.25 1.863282 12.421875 -2.230468 z m 0 0" fill="url(#O)"/>
        </g>
    </g>
    <g clip-path="url(#P)">
        <g clip-path="url(#Q)">
            <path d="m 57.992188 4.179688 c 2.347656 -0.460938 4.59375 0.121093 3.113281 3.226562 c 2.027343 -1.953125 3.886719 -2.074219 5.578125 -0.363281 c -0.515625 -0.910157 0.132812 -3.371094 3.726562 -2.433594 l -2.421875 -5.496094 z m 0 0" fill="#fa9292"/>
        </g>
    </g>
    <g clip-path="url(#R)">
        <g clip-path="url(#S)">
            <path d="m 15.292969 29 c -2.210938 1.898438 -2.539063 5.21875 -0.195313 7.496094 c -2.796875 -0.5625 -5.5 -0.125 -6.554687 2.867187 c 1.148437 -4.128906 -2.1875 -9.742187 6.75 -10.363281 z m 0 0" fill="#f76f6a"/>
        </g>
    </g>
    <g clip-path="url(#T)">
        <g clip-path="url(#U)">
            <path d="m 115.554688 31.488281 c 1.5625 2.070313 1.132812 3.886719 -1.214844 6.164063 c 2.800781 -0.5625 5.214844 0.984375 5.484375 3.976562 c 0.796875 -4.347656 4.667969 -9.523437 -4.269531 -10.140625 z m 0 0" fill="url(#V)"/>
        </g>
    </g>
    <g clip-path="url(#W)">
        <g clip-path="url(#X)">
            <path d="m 10.839844 84.261719 c -1.28125 3.121093 0.464844 4.738281 2.652344 5.160156 c -4.652344 -0.308594 -2.824219 3.105469 -1.957032 4.660156 c -3.003906 -1.320312 -4.921875 -5.550781 -8.199218 -5.996093 c 2.617187 0.03125 5.46875 -1.300782 4.980468 -3.460938 c 0.679688 1.601562 1.878906 1.246094 2.523438 -0.363281 z m 0 0" fill="#cd18c3"/>
        </g>
    </g>
    <g clip-path="url(#Y)">
        <g clip-path="url(#Z)">
            <path d="m 58.050781 121.992188 c 2.34375 0.460937 5.300781 0.269531 5.902344 -2.703126 c 0.65625 2.617188 2.863281 3.558594 6.457031 2.621094 l -2.421875 5.496094 z m 0 0" fill="#430d21"/>
        </g>
    </g>
</svg>
