<?xml version="1.0" encoding="UTF-8"?>
<svg height="128px" viewBox="0 0 128 128" width="128px" xmlns="http://www.w3.org/2000/svg" xmlns:xlink="http://www.w3.org/1999/xlink">
    <filter id="a" height="100%" width="100%" x="0%" y="0%">
        <feColorMatrix color-interpolation-filters="sRGB" values="0 0 0 0 1 0 0 0 0 1 0 0 0 0 1 0 0 0 1 0"/>
    </filter>
    <linearGradient id="b" gradientTransform="matrix(1.602174 0 0 1.755688 -48.191921 -326.153995)" gradientUnits="userSpaceOnUse" x1="68" x2="68" y1="200" y2="194">
        <stop offset="0" stop-color="#e66100"/>
        <stop offset="0.423401" stop-color="#ff7800"/>
        <stop offset="0.666667" stop-color="#ffa348"/>
        <stop offset="0.833333" stop-color="#ff7800"/>
        <stop offset="1" stop-color="#c64600"/>
    </linearGradient>
    <clipPath id="c">
        <path d="m 7 29 h 114 v 88 h -114 z m 0 0"/>
    </clipPath>
    <clipPath id="d">
        <path d="m 15.894531 29.972656 h 96.132813 c 4.421875 0 8.007812 3.585938 8.007812 8.011719 v 70.09375 c 0 4.425781 -3.585937 8.011719 -8.007812 8.011719 h -96.132813 c -4.425781 0 -8.011719 -3.585938 -8.011719 -8.011719 v -70.09375 c 0 -4.425781 3.585938 -8.011719 8.011719 -8.011719 z m 0 0"/>
    </clipPath>
    <mask id="e">
        <g filter="url(#a)">
            <rect fill-opacity="0.2" height="153.6" width="153.6" x="-12.8" y="-12.8"/>
        </g>
    </mask>
    <clipPath id="f">
        <rect height="152" width="192"/>
    </clipPath>
    <linearGradient id="g" gradientTransform="matrix(0.708068 0.708068 -0.708068 0.708068 299.583661 -20.110103)" gradientUnits="userSpaceOnUse" x1="-112" x2="-96" y1="224" y2="224">
        <stop offset="0" stop-color="#9a9996"/>
        <stop offset="0.354492" stop-color="#c0bfbc"/>
        <stop offset="1" stop-color="#5e5c64"/>
    </linearGradient>
    <linearGradient id="h" gradientTransform="matrix(0.708068 0.708068 -0.708068 0.708068 299.583661 -20.110103)" gradientUnits="userSpaceOnUse" x1="-110.231911" x2="-96" y1="249.766785" y2="248">
        <stop offset="0" stop-color="#c0bfbc"/>
        <stop offset="1" stop-color="#c0bfbc" stop-opacity="0"/>
    </linearGradient>
    <linearGradient id="i" gradientTransform="matrix(0.708068 0.708068 -0.708068 0.708068 299.583661 -20.110103)" gradientUnits="userSpaceOnUse" x1="-112.3545" x2="-96" y1="206.455002" y2="206.455002">
        <stop offset="0" stop-color="#3d3846"/>
        <stop offset="0.354492" stop-color="#77767b"/>
        <stop offset="1" stop-color="#241f31"/>
    </linearGradient>
    <path d="m 49.941406 14.449219 h 28.039063 c 1.105469 0 2 0.898437 2 2.007812 v 10.03125 c 0 1.109375 -0.894531 2.007813 -2 2.007813 h -28.039063 c -1.105468 0 -2.003906 -0.898438 -2.003906 -2.007813 v -10.03125 c 0 -1.109375 0.898438 -2.007812 2.003906 -2.007812 z m 0 0" fill="url(#b)"/>
    <path d="m 15.929688 32 h 96.058593 c 4.445313 0 8.046875 3.519531 8.046875 7.863281 v 70.273438 c 0 4.34375 -3.601562 7.863281 -8.046875 7.863281 h -96.058593 c -4.441407 0 -8.046876 -3.519531 -8.046876 -7.863281 v -70.273438 c 0 -4.34375 3.605469 -7.863281 8.046876 -7.863281 z m 0 0" fill="#3d3846"/>
    <g clip-path="url(#c)">
        <g clip-path="url(#d)">
            <path d="m 7.882812 29.972656 v 20.027344 h 0.117188 v 66.089844 h 112 v -66.089844 h 0.035156 v -20.027344 z m 0 0" fill="#5e5c64"/>
        </g>
    </g>
    <path d="m 16 32 h 96 c 3.3125 0 6 2.6875 6 6 v 70 c 0 3.3125 -2.6875 6 -6 6 h -96 c -3.3125 0 -6 -2.6875 -6 -6 v -70 c 0 -3.3125 2.6875 -6 6 -6 z m 0 0" fill="#3d3846"/>
    <path d="m 106.015625 101.59375 c 0 0.554688 -0.445313 1 -1 1 c -0.550781 0 -1 -0.445312 -1 -1 c 0 -0.550781 0.449219 -1 1 -1 c 0.554687 0 1 0.449219 1 1 z m 0 -8.011719 c 0 0.554688 -0.445313 1.003907 -1 1.003907 c -0.550781 0 -1 -0.449219 -1 -1.003907 c 0 -0.550781 0.449219 -1 1 -1 c 0.554687 0 1 0.449219 1 1 z m 0 -8.007812 c 0 0.550781 -0.445313 1 -1 1 c -0.550781 0 -1 -0.449219 -1 -1 c 0 -0.554688 0.449219 -1.003907 1 -1.003907 c 0.554687 0 1 0.449219 1 1.003907 z m 0 -8.011719 c 0 0.550781 -0.445313 1 -1 1 c -0.550781 0 -1 -0.449219 -1 -1 c 0 -0.554688 0.449219 -1.003906 1 -1.003906 c 0.554687 0 1 0.449218 1 1.003906 z m 0 -8.011719 c 0 0.554688 -0.445313 1 -1 1 c -0.550781 0 -1 -0.445312 -1 -1 c 0 -0.554687 0.449219 -1 1 -1 c 0.554687 0 1 0.445313 1 1 z m 0 -8.011719 c 0 0.554688 -0.445313 1.003907 -1 1.003907 c -0.550781 0 -1 -0.449219 -1 -1.003907 c 0 -0.550781 0.449219 -1 1 -1 c 0.554687 0 1 0.449219 1 1 z m 0 -8.011718 c 0 0.554687 -0.445313 1.003906 -1 1.003906 c -0.550781 0 -1 -0.449219 -1 -1.003906 c 0 -0.550782 0.449219 -1 1 -1 c 0.554687 0 1 0.449218 1 1 z m -8.007813 48.066406 c 0 0.554688 -0.449218 1 -1.003906 1 c -0.550781 0 -1 -0.445312 -1 -1 c 0 -0.550781 0.449219 -1 1 -1 c 0.554688 0 1.003906 0.449219 1.003906 1 z m -8.011718 0 c 0 0.554688 -0.449219 1 -1 1 c -0.554688 0 -1.003906 -0.445312 -1.003906 -1 c 0 -0.550781 0.449218 -1 1.003906 -1 c 0.550781 0 1 0.449219 1 1 z m -8.011719 0 c 0 0.554688 -0.449219 1 -1 1 c -0.554687 0 -1.003906 -0.445312 -1.003906 -1 c 0 -0.550781 0.449219 -1 1.003906 -1 c 0.550781 0 1 0.449219 1 1 z m -8.011719 0 c 0 0.554688 -0.445312 1 -1 1 c -0.554687 0 -1 -0.445312 -1 -1 c 0 -0.550781 0.445313 -1 1 -1 c 0.554688 0 1 0.449219 1 1 z m -8.007812 0 c 0 0.554688 -0.449219 1 -1.003906 1 c -0.550782 0 -1 -0.445312 -1 -1 c 0 -0.550781 0.449218 -1 1 -1 c 0.554687 0 1.003906 0.449219 1.003906 1 z m -8.011719 0 c 0 0.554688 -0.449219 1 -1.003906 1 c -0.550781 0 -1 -0.445312 -1 -1 c 0 -0.550781 0.449219 -1 1 -1 c 0.554687 0 1.003906 0.449219 1.003906 1 z m -8.011719 0 c 0 0.554688 -0.449218 1 -1 1 c -0.554687 0 -1.003906 -0.445312 -1.003906 -1 c 0 -0.550781 0.449219 -1 1.003906 -1 c 0.550782 0 1 0.449219 1 1 z m -8.011718 0 c 0 0.554688 -0.449219 1 -1 1 c -0.554688 0 -1.003907 -0.445312 -1.003907 -1 c 0 -0.550781 0.449219 -1 1.003907 -1 c 0.550781 0 1 0.449219 1 1 z m -8.011719 0 c 0 0.554688 -0.445313 1 -1 1 c -0.554688 0 -1 -0.445312 -1 -1 c 0 -0.550781 0.445312 -1 1 -1 c 0.554687 0 1 0.449219 1 1 z m -8.007813 0 c 0 0.554688 -0.449218 1 -1.003906 1 c -0.550781 0 -1 -0.445312 -1 -1 c 0 -0.550781 0.449219 -1 1 -1 c 0.554688 0 1.003906 0.449219 1.003906 1 z m 72.097656 -8.011719 c 0 0.554688 -0.449218 1.003907 -1.003906 1.003907 c -0.550781 0 -1 -0.449219 -1 -1.003907 c 0 -0.550781 0.449219 -1 1 -1 c 0.554688 0 1.003906 0.449219 1.003906 1 z m -8.011718 0 c 0 0.554688 -0.449219 1.003907 -1 1.003907 c -0.554688 0 -1.003906 -0.449219 -1.003906 -1.003907 c 0 -0.550781 0.449218 -1 1.003906 -1 c 0.550781 0 1 0.449219 1 1 z m -8.011719 0 c 0 0.554688 -0.449219 1.003907 -1 1.003907 c -0.554687 0 -1.003906 -0.449219 -1.003906 -1.003907 c 0 -0.550781 0.449219 -1 1.003906 -1 c 0.550781 0 1 0.449219 1 1 z m -8.011719 0 c 0 0.554688 -0.445312 1.003907 -1 1.003907 c -0.554687 0 -1 -0.449219 -1 -1.003907 c 0 -0.550781 0.445313 -1 1 -1 c 0.554688 0 1 0.449219 1 1 z m -8.007812 0 c 0 0.554688 -0.449219 1.003907 -1.003906 1.003907 c -0.550782 0 -1 -0.449219 -1 -1.003907 c 0 -0.550781 0.449218 -1 1 -1 c 0.554687 0 1.003906 0.449219 1.003906 1 z m -8.011719 0 c 0 0.554688 -0.449219 1.003907 -1.003906 1.003907 c -0.550781 0 -1 -0.449219 -1 -1.003907 c 0 -0.550781 0.449219 -1 1 -1 c 0.554687 0 1.003906 0.449219 1.003906 1 z m -8.011719 0 c 0 0.554688 -0.449218 1.003907 -1 1.003907 c -0.554687 0 -1.003906 -0.449219 -1.003906 -1.003907 c 0 -0.550781 0.449219 -1 1.003906 -1 c 0.550782 0 1 0.449219 1 1 z m -8.011718 0 c 0 0.554688 -0.449219 1.003907 -1 1.003907 c -0.554688 0 -1.003907 -0.449219 -1.003907 -1.003907 c 0 -0.550781 0.449219 -1 1.003907 -1 c 0.550781 0 1 0.449219 1 1 z m -8.011719 0 c 0 0.554688 -0.445313 1.003907 -1 1.003907 c -0.554688 0 -1 -0.449219 -1 -1.003907 c 0 -0.550781 0.445312 -1 1 -1 c 0.554687 0 1 0.449219 1 1 z m -8.007813 0 c 0 0.554688 -0.449218 1.003907 -1.003906 1.003907 c -0.550781 0 -1 -0.449219 -1 -1.003907 c 0 -0.550781 0.449219 -1 1 -1 c 0.554688 0 1.003906 0.449219 1.003906 1 z m 72.097656 -8.007812 c 0 0.550781 -0.449218 1 -1.003906 1 c -0.550781 0 -1 -0.449219 -1 -1 c 0 -0.554688 0.449219 -1.003907 1 -1.003907 c 0.554688 0 1.003906 0.449219 1.003906 1.003907 z m -8.011718 0 c 0 0.550781 -0.449219 1 -1 1 c -0.554688 0 -1.003906 -0.449219 -1.003906 -1 c 0 -0.554688 0.449218 -1.003907 1.003906 -1.003907 c 0.550781 0 1 0.449219 1 1.003907 z m -8.011719 0 c 0 0.550781 -0.449219 1 -1 1 c -0.554687 0 -1.003906 -0.449219 -1.003906 -1 c 0 -0.554688 0.449219 -1.003907 1.003906 -1.003907 c 0.550781 0 1 0.449219 1 1.003907 z m -8.011719 0 c 0 0.550781 -0.445312 1 -1 1 c -0.554687 0 -1 -0.449219 -1 -1 c 0 -0.554688 0.445313 -1.003907 1 -1.003907 c 0.554688 0 1 0.449219 1 1.003907 z m -8.007812 0 c 0 0.550781 -0.449219 1 -1.003906 1 c -0.550782 0 -1 -0.449219 -1 -1 c 0 -0.554688 0.449218 -1.003907 1 -1.003907 c 0.554687 0 1.003906 0.449219 1.003906 1.003907 z m -8.011719 0 c 0 0.550781 -0.449219 1 -1.003906 1 c -0.550781 0 -1 -0.449219 -1 -1 c 0 -0.554688 0.449219 -1.003907 1 -1.003907 c 0.554687 0 1.003906 0.449219 1.003906 1.003907 z m -8.011719 0 c 0 0.550781 -0.449218 1 -1 1 c -0.554687 0 -1.003906 -0.449219 -1.003906 -1 c 0 -0.554688 0.449219 -1.003907 1.003906 -1.003907 c 0.550782 0 1 0.449219 1 1.003907 z m -8.011718 0 c 0 0.550781 -0.449219 1 -1 1 c -0.554688 0 -1.003907 -0.449219 -1.003907 -1 c 0 -0.554688 0.449219 -1.003907 1.003907 -1.003907 c 0.550781 0 1 0.449219 1 1.003907 z m -8.011719 0 c 0 0.550781 -0.445313 1 -1 1 c -0.554688 0 -1 -0.449219 -1 -1 c 0 -0.554688 0.445312 -1.003907 1 -1.003907 c 0.554687 0 1 0.449219 1 1.003907 z m -8.007813 0 c 0 0.550781 -0.449218 1 -1.003906 1 c -0.550781 0 -1 -0.449219 -1 -1 c 0 -0.554688 0.449219 -1.003907 1 -1.003907 c 0.554688 0 1.003906 0.449219 1.003906 1.003907 z m 72.097656 -8.011719 c 0 0.550781 -0.449218 1 -1.003906 1 c -0.550781 0 -1 -0.449219 -1 -1 c 0 -0.554688 0.449219 -1.003906 1 -1.003906 c 0.554688 0 1.003906 0.449218 1.003906 1.003906 z m -8.011718 0 c 0 0.550781 -0.449219 1 -1 1 c -0.554688 0 -1.003906 -0.449219 -1.003906 -1 c 0 -0.554688 0.449218 -1.003906 1.003906 -1.003906 c 0.550781 0 1 0.449218 1 1.003906 z m -8.011719 0 c 0 0.550781 -0.449219 1 -1 1 c -0.554687 0 -1.003906 -0.449219 -1.003906 -1 c 0 -0.554688 0.449219 -1.003906 1.003906 -1.003906 c 0.550781 0 1 0.449218 1 1.003906 z m -8.011719 0 c 0 0.550781 -0.445312 1 -1 1 c -0.554687 0 -1 -0.449219 -1 -1 c 0 -0.554688 0.445313 -1.003906 1 -1.003906 c 0.554688 0 1 0.449218 1 1.003906 z m -8.007812 0 c 0 0.550781 -0.449219 1 -1.003906 1 c -0.550782 0 -1 -0.449219 -1 -1 c 0 -0.554688 0.449218 -1.003906 1 -1.003906 c 0.554687 0 1.003906 0.449218 1.003906 1.003906 z m -8.011719 0 c 0 0.550781 -0.449219 1 -1.003906 1 c -0.550781 0 -1 -0.449219 -1 -1 c 0 -0.554688 0.449219 -1.003906 1 -1.003906 c 0.554687 0 1.003906 0.449218 1.003906 1.003906 z m -8.011719 0 c 0 0.550781 -0.449218 1 -1 1 c -0.554687 0 -1.003906 -0.449219 -1.003906 -1 c 0 -0.554688 0.449219 -1.003906 1.003906 -1.003906 c 0.550782 0 1 0.449218 1 1.003906 z m -8.011718 0 c 0 0.550781 -0.449219 1 -1 1 c -0.554688 0 -1.003907 -0.449219 -1.003907 -1 c 0 -0.554688 0.449219 -1.003906 1.003907 -1.003906 c 0.550781 0 1 0.449218 1 1.003906 z m -8.011719 0 c 0 0.550781 -0.445313 1 -1 1 c -0.554688 0 -1 -0.449219 -1 -1 c 0 -0.554688 0.445312 -1.003906 1 -1.003906 c 0.554687 0 1 0.449218 1 1.003906 z m -8.007813 0 c 0 0.550781 -0.449218 1 -1.003906 1 c -0.550781 0 -1 -0.449219 -1 -1 c 0 -0.554688 0.449219 -1.003906 1 -1.003906 c 0.554688 0 1.003906 0.449218 1.003906 1.003906 z m 72.097656 -8.011719 c 0 0.554688 -0.449218 1 -1.003906 1 c -0.550781 0 -1 -0.445312 -1 -1 c 0 -0.554687 0.449219 -1 1 -1 c 0.554688 0 1.003906 0.445313 1.003906 1 z m -8.011718 0 c 0 0.554688 -0.449219 1 -1 1 c -0.554688 0 -1.003906 -0.445312 -1.003906 -1 c 0 -0.554687 0.449218 -1 1.003906 -1 c 0.550781 0 1 0.445313 1 1 z m -8.011719 0 c 0 0.554688 -0.449219 1 -1 1 c -0.554687 0 -1.003906 -0.445312 -1.003906 -1 c 0 -0.554687 0.449219 -1 1.003906 -1 c 0.550781 0 1 0.445313 1 1 z m -8.011719 0 c 0 0.554688 -0.445312 1 -1 1 c -0.554687 0 -1 -0.445312 -1 -1 c 0 -0.554687 0.445313 -1 1 -1 c 0.554688 0 1 0.445313 1 1 z m -8.007812 0 c 0 0.554688 -0.449219 1 -1.003906 1 c -0.550782 0 -1 -0.445312 -1 -1 c 0 -0.554687 0.449218 -1 1 -1 c 0.554687 0 1.003906 0.445313 1.003906 1 z m -8.011719 0 c 0 0.554688 -0.449219 1 -1.003906 1 c -0.550781 0 -1 -0.445312 -1 -1 c 0 -0.554687 0.449219 -1 1 -1 c 0.554687 0 1.003906 0.445313 1.003906 1 z m -8.011719 0 c 0 0.554688 -0.449218 1 -1 1 c -0.554687 0 -1.003906 -0.445312 -1.003906 -1 c 0 -0.554687 0.449219 -1 1.003906 -1 c 0.550782 0 1 0.445313 1 1 z m -8.011718 0 c 0 0.554688 -0.449219 1 -1 1 c -0.554688 0 -1.003907 -0.445312 -1.003907 -1 c 0 -0.554687 0.449219 -1 1.003907 -1 c 0.550781 0 1 0.445313 1 1 z m -8.011719 0 c 0 0.554688 -0.445313 1 -1 1 c -0.554688 0 -1 -0.445312 -1 -1 c 0 -0.554687 0.445312 -1 1 -1 c 0.554687 0 1 0.445313 1 1 z m -8.007813 0 c 0 0.554688 -0.449218 1 -1.003906 1 c -0.550781 0 -1 -0.445312 -1 -1 c 0 -0.554687 0.449219 -1 1 -1 c 0.554688 0 1.003906 0.445313 1.003906 1 z m 72.097656 -8.011719 c 0 0.554688 -0.449218 1.003907 -1.003906 1.003907 c -0.550781 0 -1 -0.449219 -1 -1.003907 c 0 -0.550781 0.449219 -1 1 -1 c 0.554688 0 1.003906 0.449219 1.003906 1 z m -8.011718 0 c 0 0.554688 -0.449219 1.003907 -1 1.003907 c -0.554688 0 -1.003906 -0.449219 -1.003906 -1.003907 c 0 -0.550781 0.449218 -1 1.003906 -1 c 0.550781 0 1 0.449219 1 1 z m -8.011719 0 c 0 0.554688 -0.449219 1.003907 -1 1.003907 c -0.554687 0 -1.003906 -0.449219 -1.003906 -1.003907 c 0 -0.550781 0.449219 -1 1.003906 -1 c 0.550781 0 1 0.449219 1 1 z m -8.011719 0 c 0 0.554688 -0.445312 1.003907 -1 1.003907 c -0.554687 0 -1 -0.449219 -1 -1.003907 c 0 -0.550781 0.445313 -1 1 -1 c 0.554688 0 1 0.449219 1 1 z m -8.007812 0 c 0 0.554688 -0.449219 1.003907 -1.003906 1.003907 c -0.550782 0 -1 -0.449219 -1 -1.003907 c 0 -0.550781 0.449218 -1 1 -1 c 0.554687 0 1.003906 0.449219 1.003906 1 z m -8.011719 0 c 0 0.554688 -0.449219 1.003907 -1.003906 1.003907 c -0.550781 0 -1 -0.449219 -1 -1.003907 c 0 -0.550781 0.449219 -1 1 -1 c 0.554687 0 1.003906 0.449219 1.003906 1 z m -8.011719 0 c 0 0.554688 -0.449218 1.003907 -1 1.003907 c -0.554687 0 -1.003906 -0.449219 -1.003906 -1.003907 c 0 -0.550781 0.449219 -1 1.003906 -1 c 0.550782 0 1 0.449219 1 1 z m -8.011718 0 c 0 0.554688 -0.449219 1.003907 -1 1.003907 c -0.554688 0 -1.003907 -0.449219 -1.003907 -1.003907 c 0 -0.550781 0.449219 -1 1.003907 -1 c 0.550781 0 1 0.449219 1 1 z m -8.011719 0 c 0 0.554688 -0.445313 1.003907 -1 1.003907 c -0.554688 0 -1 -0.449219 -1 -1.003907 c 0 -0.550781 0.445312 -1 1 -1 c 0.554687 0 1 0.449219 1 1 z m -8.007813 0 c 0 0.554688 -0.449218 1.003907 -1.003906 1.003907 c -0.550781 0 -1 -0.449219 -1 -1.003907 c 0 -0.550781 0.449219 -1 1 -1 c 0.554688 0 1.003906 0.449219 1.003906 1 z m 72.097656 -8.011718 c 0 0.554687 -0.449218 1.003906 -1.003906 1.003906 c -0.550781 0 -1 -0.449219 -1 -1.003906 c 0 -0.550782 0.449219 -1 1 -1 c 0.554688 0 1.003906 0.449218 1.003906 1 z m -8.011718 0 c 0 0.554687 -0.449219 1.003906 -1 1.003906 c -0.554688 0 -1.003906 -0.449219 -1.003906 -1.003906 c 0 -0.550782 0.449218 -1 1.003906 -1 c 0.550781 0 1 0.449218 1 1 z m -8.011719 0 c 0 0.554687 -0.449219 1.003906 -1 1.003906 c -0.554687 0 -1.003906 -0.449219 -1.003906 -1.003906 c 0 -0.550782 0.449219 -1 1.003906 -1 c 0.550781 0 1 0.449218 1 1 z m -8.011719 0 c 0 0.554687 -0.445312 1.003906 -1 1.003906 c -0.554687 0 -1 -0.449219 -1 -1.003906 c 0 -0.550782 0.445313 -1 1 -1 c 0.554688 0 1 0.449218 1 1 z m -8.007812 0 c 0 0.554687 -0.449219 1.003906 -1.003906 1.003906 c -0.550782 0 -1 -0.449219 -1 -1.003906 c 0 -0.550782 0.449218 -1 1 -1 c 0.554687 0 1.003906 0.449218 1.003906 1 z m -8.011719 0 c 0 0.554687 -0.449219 1.003906 -1.003906 1.003906 c -0.550781 0 -1 -0.449219 -1 -1.003906 c 0 -0.550782 0.449219 -1 1 -1 c 0.554687 0 1.003906 0.449218 1.003906 1 z m -8.011719 0 c 0 0.554687 -0.449218 1.003906 -1 1.003906 c -0.554687 0 -1.003906 -0.449219 -1.003906 -1.003906 c 0 -0.550782 0.449219 -1 1.003906 -1 c 0.550782 0 1 0.449218 1 1 z m -8.011718 0 c 0 0.554687 -0.449219 1.003906 -1 1.003906 c -0.554688 0 -1.003907 -0.449219 -1.003907 -1.003906 c 0 -0.550782 0.449219 -1 1.003907 -1 c 0.550781 0 1 0.449218 1 1 z m -8.011719 0 c 0 0.554687 -0.445313 1.003906 -1 1.003906 c -0.554688 0 -1 -0.449219 -1 -1.003906 c 0 -0.550782 0.445312 -1 1 -1 c 0.554687 0 1 0.449218 1 1 z m -8.007813 0 c 0 0.554687 -0.449218 1.003906 -1.003906 1.003906 c -0.550781 0 -1 -0.449219 -1 -1.003906 c 0 -0.550782 0.449219 -1 1 -1 c 0.554688 0 1.003906 0.449218 1.003906 1 z m 0 0" fill="#77767b"/>
    <g mask="url(#e)">
        <g clip-path="url(#f)" transform="matrix(1 0 0 1 -8 -16)">
            <path d="m 104.878906 42.492188 l -52.199218 52.199218 l -2.125 9.203125 l 4.25 4.25 l 9.203124 -2.125 l 61.425782 -61.425781 c -1.425782 -1.300781 -3.316406 -2.101562 -5.40625 -2.101562 z m -54.324218 62.820312 l -2.65625 4.425781 l 1.0625 1.0625 l 4.425781 -2.65625 z m 0 0"/>
        </g>
    </g>
    <path d="m 118.316406 13.878906 c -3.136718 -3.140625 -8.1875 -3.140625 -11.328125 0 l -62.308593 62.308594 l -2.125 9.203125 l 4.25 4.25 l 9.203124 -2.125 l 62.308594 -62.308594 c 3.140625 -3.140625 3.140625 -8.191406 0 -11.328125 z m 0 0" fill="url(#g)"/>
    <path d="m 42.554688 86.808594 l 2.832031 2.832031 l -4.425781 2.65625 l -1.0625 -1.0625 z m 0 0" fill="#c0bfbc"/>
    <path d="m 44.679688 76.1875 l -2.125 9.203125 l 4.25 4.25 l 9.203124 -2.125 z m 0 0" fill="url(#h)"/>
    <path d="m 118.316406 13.878906 c -3.136718 -3.140625 -8.1875 -3.140625 -11.328125 0 l -28.644531 28.644532 l 11.328125 11.328124 l 28.644531 -28.644531 c 3.140625 -3.140625 3.140625 -8.191406 0 -11.328125 z m 0 0" fill="url(#i)"/>
    <path d="m 53.214844 76.378906 c -1.265625 1.265625 -1.265625 3.300782 0 4.566406 c 1.261718 1.265626 3.300781 1.265626 4.566406 0 l 7.148438 -7.152343 l -4.566407 -4.5625 z m 9.859375 -9.859375 l 4.566406 4.566407 l 6.6875 -6.6875 c 1.265625 -1.265626 1.265625 -3.300782 0 -4.566407 s -3.300781 -1.265625 -4.566406 0 z m 0 0" fill="#77767b"/>
    <path d="m 53.214844 75.261719 c -1.265625 1.265625 -1.265625 3.304687 0 4.566406 c 1.261718 1.265625 3.300781 1.265625 4.566406 0 l 7.148438 -7.148437 l -4.566407 -4.566407 z m 9.859375 -9.859375 l 4.566406 4.566406 l 6.6875 -6.6875 c 1.265625 -1.265625 1.265625 -3.300781 0 -4.566406 s -3.300781 -1.265625 -4.566406 0 z m 0 0" fill="#c0bfbc"/>
</svg>
