<svg xmlns="http://www.w3.org/2000/svg" xmlns:xlink="http://www.w3.org/1999/xlink" width="800" height="800"><defs><linearGradient id="e"><stop offset="0" stop-color="#f6f5f4"/><stop offset="1" stop-color="#c5c1ba"/></linearGradient><linearGradient id="b"><stop offset="0" stop-color="#63452c"/><stop offset=".279" stop-color="#805939"/><stop offset="1" stop-color="#553b26"/></linearGradient><linearGradient xlink:href="#b" id="g" x1="832" y1="776.125" x2="896" y2="776.125" gradientUnits="userSpaceOnUse" gradientTransform="translate(-141.898 -97.468) scale(1.1846)"/><linearGradient xlink:href="#c" id="j" x1="384.194" y1="742.01" x2="384.194" y2="800" gradientUnits="userSpaceOnUse" gradientTransform="translate(-94.514 -97.468) scale(1.1846)"/><linearGradient id="c"><stop offset="0" stop-color="#c0bfbc"/><stop offset=".696" stop-color="#8b8984"/><stop offset="1" stop-color="#969591"/></linearGradient><linearGradient xlink:href="#a" id="i" x1="496" y1="744" x2="506.718" y2="784" gradientUnits="userSpaceOnUse" gradientTransform="translate(-214.019 -285.26) scale(1.42171)"/><linearGradient id="a"><stop offset="0" stop-color="#176340"/><stop offset="1" stop-color="#26a269"/></linearGradient><linearGradient xlink:href="#d" id="k" x1="203.261" y1="784" x2="203.261" y2="800" gradientUnits="userSpaceOnUse" gradientTransform="translate(-37.654 -97.024) scale(1.1846)"/><linearGradient id="d"><stop offset="0" stop-color="#9a9996"/><stop offset=".7" stop-color="#adaba8"/><stop offset="1" stop-color="#60605c"/></linearGradient><linearGradient xlink:href="#e" id="h" x1="-689.755" y1="646.41" x2="-689.755" y2="672" gradientUnits="userSpaceOnUse" gradientTransform="translate(94.514 -97.468) scale(1.1846)"/><clipPath clipPathUnits="userSpaceOnUse" id="f"><path d="M672 272v32a16 16 135 01-16 16h-64a16 16 135 00-16 16v32a16 16 135 01-16 16h-32a16 16 135 00-16 16v32a16 16 135 01-16 16h-96a16 16 135 00-16 16v32a16 16 135 01-16 16h-32a16 16 45 01-16-16v-96a16 16 45 00-16-16h-96a16 16 135 00-16 16v96a16 16 135 01-16 16h-32a16 16 135 00-16 16v32a16 16 45 0016 16h32a16 16 45 0116 16v96a16 16 45 0016 16h160a16 16 135 0016-16v-96a16 16 135 0116-16h352a16 16 45 0116 16v96a16 16 45 0016 16h96a16 16 135 0016-16v-96a16 16 135 0116-16h32a16 16 135 0016-16V400a16 16 45 00-16-16h-32a16 16 45 01-16-16v-96a16 16 45 00-16-16H688a16 16 135 00-16 16z" fill="#c061cb" stroke-width="6.859" stroke-linecap="round" paint-order="markers fill stroke"/></clipPath></defs><path fill="#ff7800" d="M0 0h800v800H0z"/><g clip-path="url(#f)" transform="translate(-54.268 -7.182) scale(.8316)" stroke-width=".844" paint-order="markers fill stroke" opacity=".27"><path fill="#3c3a3f" d="M160 384h192v128H160z"/><path fill="#5e5c64" d="M128 512h64v96h-64z"/><path fill="#48474c" d="M192 480h224v224H192z"/><path fill="#6a6871" d="M384 448h192v64H384z"/><path fill="#5e5c64" d="M384 512h128v64H384zm192 0h-64v64h64z"/><path fill="#4a484f" d="M576 352h-96v96h96z"/><path fill="#65636b" d="M960 384H768v192h192z"/><path fill="#5e5c64" d="M928 256H768v128h160z"/><path fill="#4b4a50" d="M768 256H640v64h128z"/><path fill="#4a484f" d="M928 576H736v128h192z"/><path fill="#55545b" d="M768 320H576v288h192z"/></g><g stroke-width=".844"><path d="M669.079 465.567c0 14.596-11.194 26.428-25.003 26.428s-25.003-11.832-25.003-26.428c0-14.595 25.003-79.82 25.003-79.82s25.003 65.225 25.003 79.82z" fill="#2ec27e"/><path d="M644.075 385.749s-.837 2.24-1.047 2.791v103.4c.35.015.694.055 1.047.055 13.809 0 25.003-11.833 25.003-26.428 0-14.596-25.003-79.818-25.003-79.818z" fill="#26a269"/></g><g stroke-width=".844"><path d="M714.52 550.328c-12.135 12.136-31.28 12.666-42.762 1.185-11.481-11.482-10.951-30.627 1.184-42.762 12.136-12.136 87.155-45.578 87.155-45.578s-33.442 75.02-45.577 87.155z" fill="#2ec27e"/><path d="M760.095 463.174s-2.56 1.167-3.19 1.45l-85.972 85.972c.278.303.53.623.824.916 11.481 11.482 30.627 10.95 42.762-1.185 12.136-12.135 45.576-87.153 45.576-87.153z" fill="#26a269"/></g><path d="M643.742 456.952l-6.77 215.874 13.944.462z" fill="#1b754c"/><path d="M732.68 489.488l-90.844 87.374 5.819 6.218z" fill="#1a704b"/><path d="M843.688 793.647h75.814l-8.292 56.564h-59.23z" fill="url(#g)" transform="translate(-473.2 -374.192) scale(1.26735)"/><path d="M681.62 703.321l10.51-71.685-26.438.19-4.913 71.407z" fill="#473220"/><path d="M641.635 553.851l-10.118-6.12 1.03-5.108 9.88 3.461z" fill="#1b754c"/><g transform="translate(-694.01 2962.37) scale(.41275)" stroke-width="1.701"><path d="M2875.496-6025.689h17.595c3.284 0 5.025 2.77 5.927 5.927l2.388 8.36c1.048 3.669-3.072 6.888-6.888 6.888h-20.448c-3.816 0-7.937-3.22-6.889-6.888l2.388-8.36c.902-3.157 2.644-5.927 5.927-5.927z" style="marker:none" fill="#f3f1ef"/><path d="M2797.496-6008.975h105.942c3.284 0 5.366 2.692 5.927 5.928l3.98 22.966c.598 3.454-2.822 6.327-6.328 6.327h-113.1c-3.505 0-6.926-2.873-6.327-6.327l3.98-22.966c.56-3.236 2.643-5.928 5.926-5.928z" style="marker:none" fill="#fff"/><path d="M2797.596-5981.913h110.518c3.283 0 6.244 2.658 5.927 5.927l-11.939 123.167c-.262 2.705-2.188 4.905-4.905 4.905h-88.684c-2.717 0-4.643-2.2-4.905-4.905l-11.939-123.167c-.317-3.269 2.644-5.927 5.927-5.927z" style="marker:none" fill="#deddda"/><path d="M2797.597-5981.913c-3.284 0-6.245 2.659-5.928 5.927l11.939 123.167c.262 2.705 2.187 4.904 4.904 4.904h42.98c-2.717 0-4.642-2.2-4.905-4.904l-11.938-123.167c-.317-3.268 2.644-5.927 5.927-5.927z" style="marker:none" fill="#9a9996"/><path d="M2797.597-5981.913c-3.284 0-6.245 2.659-5.928 5.927l6.137 63.318h42.98l-6.137-63.318c-.317-3.268 2.644-5.927 5.927-5.927z" style="marker:none" fill="#d2d0cc"/><path d="M2868.436-6008.974c3.284 0 5.367 2.692 5.928 5.927l3.978 22.965c.599 3.454-2.82 6.328-6.326 6.328h35.002c3.505 0 6.925-2.874 6.326-6.328l-3.978-22.965c-.561-3.235-2.645-5.927-5.928-5.927z" style="marker:none" fill="#deddda"/><rect ry="5.041" rx="5.041" y="-5992.26" x="2781.539" height="36.612" width="140.461" style="marker:none" fill="#f6f5f4"/><path d="M2906.082-5950.077a38.204 38.204 0 00-38.204 38.205 38.204 38.204 0 0036.254 38.106l7.356-75.878a38.204 38.204 0 00-5.406-.432z" style="marker:none" fill="#c0bfbc"/><path d="M2875.414-5992.26a5.914 5.914 0 015.928 5.926v24.758a5.915 5.915 0 01-5.928 5.928h40.658a5.915 5.915 0 005.928-5.928v-24.758a5.914 5.914 0 00-5.928-5.926z" style="marker:none" fill="#deddda"/></g><g paint-order="markers fill stroke"><path transform="matrix(-.5265 0 0 .5265 133.539 255.682)" fill="url(#h)" d="M-805.78 546.954h151.629v151.629H-805.78z"/><path fill="#c0bfbc" d="M418.077 543.655h59.875v79.833h-59.875z"/><path fill="#57e389" d="M482.942 548.644h69.854v69.854h-69.854z"/><path fill="#a51d2d" d="M423.067 548.644h49.896v69.854h-49.896z"/></g><g paint-order="markers fill stroke"><path fill="#c0bfbc" d="M434.32 623.488h59.875v79.833H434.32z"/><path fill="#f6f5f4" d="M574.028 623.488h-79.833v79.833h79.833z"/><path fill="#26a269" d="M439.31 628.478h49.895v69.854H439.31z"/><path fill="#73a0d0" d="M499.185 628.478h69.854v69.854h-69.854z"/><path d="M502.323 681.502l.2.609v-.609zm.2 57.882l-51.131 101.35h51.131z" fill="url(#i)" transform="translate(224.625 255.682) scale(.5265)"/></g><path fill="#c0bfbc" paint-order="markers fill stroke" d="M434.008 635.162l-57.19-41.766-34.858 68.525 57.19 41.765z"/><path d="M402.147 661.92l34.858-68.524h-60.187l-34.858 68.525z" fill="#fff"/><path fill="#deddda" paint-order="markers fill stroke" d="M494.195 635.162l-57.19-41.766-34.858 68.525 57.19 41.766z"/><path d="M454.667 850.21h-98.994l-94.066-68.694h98.995z" fill="url(#j)" transform="translate(182.907 186.771) scale(.60798)"/><path style="font-variation-settings:normal;marker:none" d="M486.962 636.891l-29.656 58.3-47.925-35 29.656-58.3z" fill="#e01b24"/><path d="M354.736 666.089l45.774 33.43h46.052l-45.774-33.43z" fill="#1a5fb4"/><path d="M379.818 598.288l-29.88 58.74h49.21l29.88-58.74z" fill="#33d17a"/><g transform="translate(9.585 -642.307) scale(1.5827)"><rect width="132.675" height="137.355" x="-162.401" y="742.848" rx="14.858" ry="14.036" transform="skewX(15) scale(1 .96593)" fill="#deddda" paint-order="markers fill stroke"/><path d="M53.561 727.012c-4.777 0-6.967 3.07-6.026 6.584L74.48 834.15c.941 3.514 4.78 6.586 9.555 6.586h93.914c4.776 0 6.967-3.072 6.026-6.586L157.03 733.596c-.941-3.514-4.777-6.584-9.554-6.584z" fill="#3584e4" paint-order="markers fill stroke"/><g stroke-width="3.109"><path style="marker:none" d="M111.557 761.272a3.152 2.413 41.185 00-1.256.37l-11.671 7.971a3.152 2.413 41.185 00-.739 2.389l4.272 15.943a3.152 2.413 41.185 002.019 2.389l15.943 7.971a3.152 2.413 41.185 002.758 0l11.671-7.971a3.152 2.413 41.185 00.74-2.389l-4.273-15.943a3.152 2.413 41.185 00-2.019-2.389l-15.943-7.972a3.152 2.413 41.185 00-1.502-.37z" fill="#fff"/><path style="marker:none" d="M128.878 770.77l-12.47 8.517-17.034-8.518 12.47-8.517z" fill="#98c1f1"/><path style="marker:none" d="M121.938 797.209l12.355-8.325-4.528-16.97-12.345 8.432z" fill="#33d17a"/><path d="M120.462 797.156l-16.816-8.325-4.565-16.97 16.863 8.432z" style="marker:none" fill="#e01b24"/></g><path d="M66.591 831.7v9.478a9.456 9.456 0 009.477 9.476H275.08a9.456 9.456 0 009.477-9.476V831.7H76.068z" fill="url(#k)" paint-order="markers fill stroke"/><path d="M60.334 831.7l2.596 9.478c1.387 5.063 7.888 9.476 13.138 9.476h66.337c5.25 0 9.477-4.806 9.477-9.476V831.7H76.068z" fill="#77767b" paint-order="markers fill stroke"/></g></svg>